<svg width="71" height="85" viewBox="0 0 71 85" fill="none" xmlns="http://www.w3.org/2000/svg">
<path d="M28.285 18.4029C27.5972 18.8272 27.2729 19.6477 27.3636 20.7348C27.43 21.5316 27.52 21.725 28.0472 22.2059C29.6152 23.6354 31.6801 22.101 31.2508 19.8248C31.0793 18.9147 30.201 18.1104 29.3851 18.116C29.0319 18.1184 28.5367 18.2475 28.285 18.4029Z" fill="black"/>
<path d="M39.6902 18.3826C39.2383 18.6974 38.6774 19.8346 38.6774 20.4355C38.6774 21.1405 39.273 22.2198 39.8166 22.4995C41.295 23.2601 42.6722 22.2646 42.6722 20.4355C42.6722 18.9945 41.9245 18.13 40.6677 18.1174C40.3438 18.1142 39.904 18.2336 39.6902 18.3826Z" fill="black"/>
<path d="M33.8793 17.7741C33.3467 18.0971 33.3447 18.1034 33.5873 18.6811C33.9201 19.4739 33.9016 21.4166 33.5528 22.2839L33.2741 22.9769L33.7289 23.3662C34.3074 23.8612 35.364 23.8872 36.1257 23.4253C36.7465 23.0486 36.743 23.0637 36.4225 22.1785C36.1188 21.3402 36.1122 19.5514 36.4095 18.7223C36.6347 18.0935 36.632 18.085 36.1102 17.7683C35.4351 17.3589 34.56 17.3611 33.8793 17.7741Z" fill="black"/>
<path d="M30.5097 25.9956C28.755 27.6609 28.32 29.1097 28.2719 33.4508C28.2446 35.9057 28.2739 36.2002 28.6328 37.0851C28.8649 37.6573 29.3728 38.4207 29.8842 38.966L30.7449 39.884L32.0863 33.0232C33.3937 26.3367 33.4193 26.1591 33.0924 26.0298C32.9079 25.9567 32.5158 25.714 32.221 25.4903C31.926 25.2665 31.6367 25.0834 31.5778 25.0834C31.5191 25.0834 31.0384 25.4939 30.5097 25.9956Z" fill="black"/>
<path d="M37.5195 25.5885C37.1161 25.8522 36.7155 26.0914 36.6292 26.1199C36.5421 26.1488 36.7884 27.7568 37.1831 29.7361C37.6326 31.9904 37.8517 33.4669 37.7789 33.7538C37.6368 34.3152 36.8394 34.7604 36.2426 34.6113C35.6897 34.4734 35.3954 34.0114 35.142 32.8831L34.9372 31.9723L34.1459 35.9562C33.7106 38.1474 33.3305 40.1974 33.301 40.5118C33.2501 41.0574 33.2781 41.0901 33.915 41.2279C34.7595 41.4105 36.6676 41.2279 36.6691 40.9643C36.6696 40.8576 36.5815 40.1911 36.4732 39.4835C36.2817 38.231 36.2868 38.1857 36.6681 37.782C37.1514 37.2702 38.0249 37.2233 38.4884 37.6844C38.6636 37.8587 38.896 38.4272 39.0046 38.9478L39.202 39.894L39.8428 39.2715C40.1954 38.929 40.7062 38.2297 40.9782 37.7174C41.7754 36.2161 41.8973 35.2522 41.6769 32.2009C41.4707 29.348 41.281 28.4845 40.61 27.3453C40.2135 26.6723 38.607 25.0665 38.3601 25.0964C38.3012 25.1035 37.9229 25.3249 37.5195 25.5885Z" fill="black"/>
<path d="M28.1553 42.4726C24.5937 46.494 23.7901 53.7963 26.3702 58.6932C27.4702 60.781 29.8453 62.636 32.2282 63.2683C32.9808 63.468 33.0622 63.4602 33.279 63.1662C33.4081 62.9911 33.4765 62.7356 33.431 62.5986C33.3854 62.4617 33.0003 61.4191 32.575 60.2818C31.6984 57.9373 30.815 54.621 30.7731 53.517C30.7504 52.9182 30.8207 52.7145 31.1388 52.4582C31.3554 52.2836 31.7413 52.1409 31.9963 52.1409C32.8552 52.1409 33.1398 52.5725 33.5841 54.5478C34.1282 56.9674 34.8578 59.3214 35.0135 59.1595C35.4459 58.7098 36.6971 53.3043 36.9919 50.6119C37.1925 48.7809 37.226 44.175 37.0408 43.924C36.9707 43.8292 36.0511 43.758 34.8957 43.758H32.8734L32.7694 45.086C32.7124 45.8164 32.6651 46.9067 32.6646 47.5087C32.6636 48.6674 32.4839 48.9912 31.7126 49.2248C31.1946 49.3818 30.3562 48.9079 30.2237 48.3834C30.164 48.146 30.1529 46.7622 30.1997 45.3084L30.2844 42.6653L29.5685 42.1753L28.8527 41.6852L28.1553 42.4726Z" fill="black"/>
<path d="M40.5054 42.0687L39.5877 42.7621L39.717 44.339C40.1348 49.4338 39.0655 56.1263 37.0298 61.1591C36.4443 62.6066 36.4115 62.7708 36.6255 63.1773C36.8389 63.5823 36.9178 63.6104 37.5559 63.5088C37.9393 63.4477 38.7608 63.2251 39.3815 63.0141C42.4097 61.9843 44.5066 59.6107 45.5407 56.0418C45.8764 54.8831 45.9238 54.3646 45.9126 51.9749C45.902 49.6999 45.8379 49.011 45.5346 47.9079C44.9726 45.864 43.8706 43.7683 42.676 42.4716C42.1082 41.8554 41.594 41.3566 41.5333 41.3632C41.4727 41.37 41.0101 41.6874 40.5054 42.0687Z" fill="black"/>
<path d="M45.3205 40.1672L44.3793 40.4381L44.9591 41.1021C45.278 41.4673 45.7666 42.144 46.0453 42.606C46.5188 43.3912 46.6396 43.4777 47.9014 43.934C48.6437 44.2024 49.3206 44.4502 49.4055 44.4848C49.4906 44.5195 49.0113 43.4923 48.3406 42.2023C46.9679 39.5633 47.1029 39.6541 45.3205 40.1672Z" fill="black"/>
<path d="M44.3415 35.2922C44.34 35.6574 44.228 36.367 44.0925 36.8692C43.957 37.3713 43.8453 37.8059 43.8443 37.8348C43.8431 37.8638 43.9737 37.8496 44.1342 37.8032C44.2947 37.7569 44.7451 37.6369 45.135 37.5368L45.8436 37.3546L45.4223 36.5274C45.1905 36.0724 44.8532 35.459 44.6725 35.1642L44.344 34.6282L44.3415 35.2922Z" fill="black"/>
<path d="M21.5813 42.1988C20.875 43.5781 20.3384 44.7477 20.3888 44.7977C20.4392 44.8478 21.3417 44.5713 22.3943 44.1832C24.1822 43.524 24.3351 43.4322 24.7158 42.7878C24.94 42.4085 25.3907 41.7629 25.7174 41.3534C26.0441 40.9437 26.2578 40.5619 26.1924 40.5048C26.0736 40.4014 23.3006 39.6911 23.0153 39.6911C22.9327 39.6911 22.2874 40.8196 21.5813 42.1988Z" fill="black"/>
<path fill-rule="evenodd" clip-rule="evenodd" d="M13.6555 0.45534C13.2759 0.935236 13.2202 1.36766 13.4764 1.84407C13.5684 2.01471 14.9542 3.10714 16.5561 4.27177C19.4156 6.35038 19.4717 6.40283 19.6245 7.146C19.7101 7.56215 20.0653 9.46198 20.4142 11.3676L21.0482 14.8323L22.8933 16.8186L24.7385 18.8051L24.7418 20.2428C24.7445 21.3882 24.8247 21.8569 25.1361 22.5482C25.5048 23.3664 26.3878 24.3311 27.3246 24.9392C27.7165 25.1936 27.725 25.2287 27.4662 25.5202C27.3147 25.6908 25.9373 28.2393 24.4051 31.1838C22.873 34.1282 21.5366 36.5372 21.4351 36.5372C20.9893 36.5372 18.2128 35.804 18.037 35.6398C17.93 35.54 16.6991 32.9558 15.3016 29.8973C13.9041 26.8388 12.6027 24.1804 12.4095 23.9897C11.9863 23.572 4.74243 20.765 4.0914 20.7665C3.0613 20.7688 2.56294 22.1697 3.3406 22.877C3.54716 23.0649 5.21761 23.7926 7.05291 24.4945C8.8882 25.1963 10.4712 25.8586 10.5708 25.9665C10.6703 26.0743 11.9445 28.7647 13.4022 31.9454C15.5185 36.5628 16.1378 37.771 16.4746 37.9394C16.7069 38.0552 17.61 38.3205 18.4818 38.5288C19.3536 38.7371 20.1207 38.9373 20.1866 38.9738C20.2525 39.0104 19.7835 40.0643 19.1445 41.3161C18.5055 42.5678 17.7347 44.1798 17.4313 44.8983L16.8799 46.2047L13.6611 47.3761C11.3347 48.2228 10.3745 48.6504 10.1978 48.9189C10.0403 49.1581 9.74846 51.0239 9.37806 54.16C9.06156 56.8384 8.78276 59.0905 8.75856 59.1648C8.73421 59.2392 6.84151 60.9199 4.55257 62.8998C2.26362 64.8796 0.277993 66.6999 0.140178 66.9448C-0.34751 67.8111 0.518416 68.9293 1.48929 68.6867C1.93994 68.5742 10.8641 60.9546 11.1349 60.4513C11.2242 60.2853 11.5435 58.0025 11.8445 55.3785C12.3858 50.6615 12.3966 50.6056 12.8091 50.4455C13.0385 50.3566 13.7931 50.074 14.4862 49.8176L15.7462 49.3515L15.1888 51.2807C14.495 53.6818 13.9077 56.5521 13.5352 59.3617C13.1314 62.4071 13.1352 69.1778 13.5425 72.1434C14.027 75.6719 14.9942 79.9079 15.8041 82.0491C16.4736 83.8188 17.904 84.8589 19.8291 84.9758C21.2077 85.0595 22.3127 84.6271 23.2701 83.6291C23.8507 83.0237 34.1647 67.2095 34.4339 66.5118C34.4892 66.3681 34.6986 66.2506 34.8992 66.2506C35.1892 66.2506 35.631 66.8254 37.055 69.0559C38.0401 70.5989 38.9514 71.9484 39.0802 72.0546C39.209 72.161 39.5573 72.2548 39.8542 72.2633C40.5728 72.2835 41.2455 71.5505 41.113 70.8915C41.0631 70.6435 40.3797 69.4475 39.5944 68.2336L38.1665 66.0265L39.3648 65.7237C41.4459 65.198 42.9181 64.3552 44.5265 62.769C47.0507 60.2795 48.2945 57.3643 48.6107 53.1969C48.7308 51.6137 48.4982 49.007 48.1043 47.521C47.9763 47.0385 47.9255 46.6666 47.991 46.6948C48.0568 46.7229 48.7226 46.9672 49.4708 47.2378L50.8309 47.7297L51.2542 48.8978C52.4334 52.1531 53.4273 56.4943 53.8777 60.3577C54.1893 63.0306 54.1389 69.1678 53.7836 71.8115C53.2517 75.7693 52.0212 80.8237 51.3795 81.6868C51.2091 81.9158 50.77 82.2086 50.4036 82.3376C49.799 82.5503 49.677 82.5426 49.0855 82.2546C48.5261 81.9822 48.1073 81.4308 46.1344 78.3683C44.8697 76.4054 43.6781 74.6686 43.4864 74.5089C42.7084 73.8603 41.5064 74.448 41.5064 75.4768C41.5064 75.8239 42.193 77.0324 43.8579 79.6161C45.1513 81.6232 46.4067 83.4732 46.6476 83.7273C46.8885 83.9815 47.484 84.3834 47.9708 84.6204C48.7477 84.9986 49.0068 85.0417 50.0856 84.9728C51.9681 84.8526 53.2889 83.9407 54.0507 82.2352C54.503 81.2226 55.6047 76.7942 56.0036 74.3844C56.5267 71.2265 56.6893 69.1726 56.6893 65.7303C56.6893 60.5708 55.9991 55.6031 54.6338 50.9374C54.32 49.8647 54.1097 48.9873 54.1666 48.9876C54.2235 48.9879 55.2439 49.3486 56.4344 49.7892L58.5985 50.5901L59.1416 55.3079C59.4404 57.9028 59.7554 60.1837 59.8419 60.3769C60.0653 60.8773 69.0052 68.5606 69.5107 68.6867C70.4816 68.9293 71.3475 67.8111 70.8598 66.9448C70.722 66.6999 68.7364 64.8796 66.4474 62.8998C64.1585 60.9199 62.2658 59.2392 62.2414 59.1648C62.2172 59.0905 61.9384 56.8384 61.6219 54.16C61.2512 51.0214 60.9597 49.1581 60.8021 48.9185C60.6214 48.6441 59.5444 48.1812 56.6852 47.1485C53.0414 45.8325 52.8027 45.7206 52.6358 45.252C52.5382 44.9781 51.8305 43.4934 51.0631 41.9528C50.2958 40.4122 49.6898 39.1299 49.7165 39.1035C49.7434 39.0769 50.7038 38.8221 51.8508 38.5369C53.3207 38.1718 54.0393 37.9103 54.2849 37.6515C54.4768 37.4495 55.8152 34.7071 57.2594 31.5573L59.8854 25.8304L63.3923 24.5024C67.0653 23.1115 67.5343 22.8209 67.5343 21.936C67.5343 21.3772 66.9053 20.7675 66.3288 20.7675C65.9501 20.7675 59.8304 23.0324 58.4234 23.6932C57.9572 23.9122 57.6388 24.5174 55.2651 29.6975C53.8133 32.8658 52.5729 35.52 52.5089 35.5955C52.4141 35.7072 48.8531 36.6867 48.4956 36.6995C48.4395 36.7015 47.1716 34.3314 45.6781 31.4328C44.1843 28.5342 42.7871 25.9277 42.5732 25.6408L42.1843 25.1193L42.6825 24.9141C42.9565 24.8012 43.5419 24.3155 43.9836 23.8346C44.9404 22.793 45.3901 21.5711 45.3255 20.187L45.2821 19.2556L46.9005 17.5314C49.6465 14.6059 49.3256 15.284 50.1914 10.5755L50.9559 6.41727L53.8605 4.30497C55.458 3.14316 56.8605 2.06252 56.9775 1.90349C57.3072 1.4548 57.2296 0.872324 56.7803 0.425461C56.0246 -0.326503 55.6766 -0.181589 52.1653 2.34787C50.3864 3.62919 48.8411 4.80578 48.7312 4.96231C48.6212 5.11885 48.1827 7.14899 47.7568 9.47377L46.9821 13.7009L45.5526 15.2006C44.7662 16.0257 44.0545 16.7273 43.9707 16.7599C43.887 16.7926 43.6549 16.6705 43.455 16.4888C42.4409 15.5672 40.7653 15.2334 39.5043 15.7018C38.2227 16.178 38.0027 16.1981 38.0027 15.8392C38.0027 15.6636 38.1588 15.0602 38.3495 14.4982L38.6964 13.4763L40.1431 12.6936C41.7572 11.8205 41.9939 11.595 42.0016 10.9247C42.008 10.3761 41.3466 9.64574 40.8436 9.64574C40.2719 9.64574 37.2472 11.2478 36.7834 11.7961L36.3514 12.3068L36.301 8.40757C36.2526 4.64808 36.2376 4.49536 35.8847 4.14445C35.3587 3.62172 34.5498 3.66057 34.0555 4.23243C33.6702 4.67796 33.6647 4.73789 33.6647 8.50485V12.3253L33.1225 11.7544C32.5569 11.1588 29.732 9.64574 29.1857 9.64574C28.5971 9.64574 27.992 10.2828 27.992 10.9028C27.992 11.6395 28.3392 11.9719 29.9519 12.7786L31.252 13.4288L31.6395 14.6261C32.1064 16.0685 31.9857 16.3344 31.0629 15.8967C29.7599 15.2783 27.845 15.451 26.7823 16.2826C26.5469 16.4669 26.3235 16.6176 26.2858 16.6176C26.2481 16.6176 25.5969 15.9446 24.8388 15.1221L23.4603 13.6267L22.7138 9.51975C22.218 6.79276 21.8663 5.27356 21.6667 4.99834C21.5015 4.77026 19.949 3.55649 18.2168 2.30089C14.7453 -0.215617 14.3215 -0.387093 13.6555 0.45534ZM33.5873 18.6811C33.3447 18.1034 33.3467 18.0971 33.8793 17.7741C34.56 17.3611 35.4351 17.3589 36.1102 17.7683C36.632 18.085 36.6347 18.0935 36.4095 18.7223C36.1122 19.5514 36.1188 21.3402 36.4225 22.1785C36.743 23.0637 36.7465 23.0486 36.1257 23.4253C35.364 23.8872 34.3074 23.8612 33.7289 23.3662L33.2741 22.9769L33.5528 22.2839C33.9016 21.4166 33.9201 19.4739 33.5873 18.6811ZM27.3636 20.7348C27.2729 19.6477 27.5972 18.8272 28.285 18.4029C28.5367 18.2475 29.0319 18.1184 29.3851 18.116C30.201 18.1104 31.0793 18.9147 31.2508 19.8248C31.6801 22.101 29.6152 23.6354 28.0472 22.2059C27.52 21.725 27.43 21.5316 27.3636 20.7348ZM38.6774 20.4355C38.6774 19.8346 39.2383 18.6974 39.6902 18.3826C39.904 18.2336 40.3438 18.1142 40.6677 18.1174C41.9245 18.13 42.6722 18.9945 42.6722 20.4355C42.6722 22.2646 41.295 23.2601 39.8166 22.4995C39.273 22.2198 38.6774 21.1405 38.6774 20.4355ZM28.2719 33.4508C28.32 29.1097 28.755 27.6609 30.5097 25.9956C31.0384 25.4939 31.5191 25.0834 31.5778 25.0834C31.6367 25.0834 31.926 25.2665 32.221 25.4903C32.5158 25.714 32.9079 25.9567 33.0924 26.0298C33.4193 26.1591 33.3937 26.3367 32.0863 33.0232L30.7449 39.884L29.8842 38.966C29.3728 38.4207 28.8649 37.6573 28.6328 37.0851C28.2739 36.2002 28.2446 35.9057 28.2719 33.4508ZM36.6292 26.1199C36.7155 26.0914 37.1161 25.8522 37.5195 25.5885C37.9229 25.3249 38.3012 25.1035 38.3601 25.0964C38.607 25.0665 40.2135 26.6723 40.61 27.3453C41.281 28.4845 41.4707 29.348 41.6769 32.2009C41.8973 35.2522 41.7754 36.2161 40.9782 37.7174C40.7062 38.2297 40.1954 38.929 39.8428 39.2715L39.202 39.894L39.0046 38.9478C38.896 38.4272 38.6636 37.8587 38.4884 37.6844C38.0249 37.2233 37.1514 37.2702 36.6681 37.782C36.2868 38.1857 36.2817 38.231 36.4732 39.4835C36.5815 40.1911 36.6696 40.8576 36.6691 40.9643C36.6676 41.2279 34.7595 41.4105 33.915 41.2279C33.2781 41.0901 33.2501 41.0574 33.301 40.5118C33.3305 40.1974 33.7106 38.1474 34.1459 35.9562L34.9372 31.9723L35.142 32.8831C35.3954 34.0114 35.6897 34.4734 36.2426 34.6113C36.8394 34.7604 37.6368 34.3152 37.7789 33.7538C37.8517 33.4669 37.6326 31.9904 37.1831 29.7361C36.7884 27.7568 36.5421 26.1488 36.6292 26.1199ZM44.0925 36.8692C44.228 36.367 44.34 35.6574 44.3415 35.2922L44.344 34.6282L44.6725 35.1642C44.8532 35.459 45.1905 36.0724 45.4223 36.5274L45.8436 37.3546L45.135 37.5368C44.7451 37.6369 44.2947 37.7569 44.1342 37.8032C43.9737 37.8496 43.8431 37.8638 43.8443 37.8348C43.8453 37.8059 43.957 37.3713 44.0925 36.8692ZM24.1844 37.2755C24.155 37.2521 24.4176 36.7098 24.7682 36.0706C25.4009 34.9166 25.6483 34.8193 25.6536 35.7223C25.655 35.9589 25.7614 36.5005 25.8901 36.9258C26.024 37.3685 26.0556 37.6992 25.964 37.6992C25.7779 37.6992 24.2638 37.3388 24.1844 37.2755ZM20.3888 44.7977C20.3384 44.7477 20.875 43.5781 21.5813 42.1988C22.2874 40.8196 22.9327 39.6911 23.0153 39.6911C23.3006 39.6911 26.0736 40.4014 26.1924 40.5048C26.2578 40.5619 26.0441 40.9437 25.7174 41.3534C25.3907 41.7629 24.94 42.4085 24.7158 42.7878C24.3351 43.4322 24.1822 43.524 22.3943 44.1832C21.3417 44.5713 20.4392 44.8478 20.3888 44.7977ZM44.3793 40.4381L45.3205 40.1672C47.1029 39.6541 46.9679 39.5633 48.3406 42.2023C49.0113 43.4923 49.4906 44.5195 49.4055 44.4848C49.3206 44.4502 48.6437 44.2024 47.9014 43.934C46.6396 43.4777 46.5188 43.3912 46.0453 42.606C45.7666 42.144 45.278 41.4673 44.9591 41.1021L44.3793 40.4381ZM39.5877 42.7621L40.5054 42.0687C41.0101 41.6874 41.4727 41.37 41.5333 41.3632C41.594 41.3566 42.1082 41.8554 42.676 42.4716C43.8706 43.7683 44.9726 45.864 45.5346 47.9079C45.8379 49.011 45.902 49.6999 45.9126 51.9749C45.9238 54.3646 45.8764 54.8831 45.5407 56.0418C44.5066 59.6107 42.4097 61.9843 39.3815 63.0141C38.7608 63.2251 37.9393 63.4477 37.5559 63.5088C36.9178 63.6104 36.8389 63.5823 36.6255 63.1773C36.4115 62.7708 36.4443 62.6066 37.0298 61.1591C39.0655 56.1263 40.1348 49.4338 39.717 44.339L39.5877 42.7621ZM26.3702 58.6932C23.7901 53.7963 24.5937 46.494 28.1553 42.4726L28.8527 41.6852L29.5685 42.1753L30.2844 42.6653L30.1997 45.3084C30.1529 46.7622 30.164 48.146 30.2237 48.3834C30.3562 48.9079 31.1946 49.3818 31.7126 49.2248C32.4839 48.9912 32.6636 48.6674 32.6646 47.5087C32.6651 46.9067 32.7124 45.8164 32.7694 45.086L32.8734 43.758H34.8957C36.0511 43.758 36.9707 43.8292 37.0408 43.924C37.226 44.175 37.1925 48.7809 36.9919 50.6119C36.6971 53.3043 35.4459 58.7098 35.0135 59.1595C34.8578 59.3214 34.1282 56.9674 33.5841 54.5478C33.1398 52.5725 32.8552 52.1409 31.9963 52.1409C31.7413 52.1409 31.3554 52.2836 31.1388 52.4582C30.8207 52.7145 30.7504 52.9182 30.7731 53.517C30.815 54.621 31.6984 57.9373 32.575 60.2818C33.0003 61.4191 33.3854 62.4617 33.431 62.5986C33.4765 62.7356 33.4081 62.9911 33.279 63.1662C33.0622 63.4602 32.9808 63.468 32.2282 63.2683C29.8453 62.636 27.4702 60.781 26.3702 58.6932ZM18.8524 48.2184L20.8777 47.4717C21.9917 47.061 22.9127 46.7297 22.9244 46.7355C22.9361 46.7413 22.8008 47.4183 22.6239 48.2399C22.1946 50.2329 22.1642 53.5143 22.5562 55.5396C23.3839 59.8155 25.7422 63.1197 29.1934 64.8386C30.0041 65.2423 30.9273 65.6211 31.2448 65.6804C31.7735 65.7791 31.806 65.818 31.6309 66.1438C30.9867 67.3423 21.5457 81.8234 21.2556 82.0581C20.7189 82.4925 19.955 82.5803 19.2526 82.2883C18.4534 81.956 18.1364 81.2494 17.2972 77.9286C16.318 74.0539 15.9671 71.399 15.8602 67.0523C15.7033 60.6827 16.3058 56.3404 18.1723 50.3871L18.8524 48.2184Z" fill="black"/>
<path d="M24.7682 36.0706C24.4176 36.7098 24.155 37.2521 24.1844 37.2755C24.2638 37.3388 25.7779 37.6992 25.964 37.6992C26.0556 37.6992 26.024 37.3685 25.8901 36.9258C25.7614 36.5005 25.655 35.9589 25.6536 35.7223C25.6483 34.8193 25.4009 34.9166 24.7682 36.0706Z" fill="black"/>
</svg>
