<svg width="206" height="257" viewBox="0 0 206 257" fill="none" xmlns="http://www.w3.org/2000/svg">
<path d="M6.30176 251.268C8.80068 252.138 12.0524 251.693 15.5811 250.052L16.29 249.707L16.627 249.531C18.4537 248.551 22.4103 246.082 27.501 242.795C32.9561 239.273 39.7713 234.775 46.8037 230.066C59.9824 221.243 73.951 211.663 81.1582 206.373L82.5068 205.373L82.5078 205.372C98.4274 193.414 109.471 182.462 117.301 170.718L117.303 170.715C121.551 164.305 124.159 159.885 125.748 155.646C127.347 151.38 127.894 147.35 128.119 141.754C128.95 122.497 122.599 105.469 109.665 92.082L109.664 92.0801L105.641 87.9336L108.692 85.3516L109.182 84.9316C111.692 82.7203 115.134 78.8542 118.413 74.7627C121.699 70.662 124.882 66.2576 126.863 62.9385L127.243 62.29L127.25 62.2783C134.022 50.0901 139.423 32.9034 141.001 18.0283H141C141.631 12.3108 141.649 8.29723 140.726 5.69043C140.248 4.34263 139.5 3.31322 138.419 2.64062C137.355 1.97903 136.073 1.72854 134.644 1.72852C134.008 1.72852 133.278 1.89326 132.619 2.11621C131.952 2.34197 131.273 2.65664 130.737 3.01367L130.73 3.01855L130.724 3.02246C129.358 3.96425 128.524 5.44762 127.946 7.79688C127.373 10.128 127.016 13.4679 126.718 18.3086V18.3105C125.465 39.3154 116.326 58.3062 102.828 68.5938V68.5947C99.2512 71.2949 94.6885 73.8231 91.0322 75.377C89.1941 76.1581 87.6448 76.6674 86.5918 76.8457C86.3399 76.8884 86.1418 76.9059 85.9912 76.9111C86.0378 76.7547 86.0966 76.5699 86.168 76.3623C86.3643 75.7912 86.6351 75.0859 86.9258 74.3955L86.9277 74.3906C89.6284 67.8776 87.6478 59.7526 82.3447 55.083C77.8406 51.1077 71.3396 50.8524 65.374 53.0918C59.3911 55.3378 53.7433 60.1507 50.7578 66.6641L50.7559 66.667C48.0613 72.5949 47.2382 77.9047 47.5381 88.1836L47.751 96.8418L43.585 101.007L43.5781 101.015C40.0314 104.634 36.7849 107.04 32.7559 108.754C28.7056 110.477 23.807 111.524 16.9131 112.34V112.341C13.6061 112.734 11.0831 114.143 9.99707 116.245C8.86674 118.434 9.4823 120.978 11.6309 123.127C12.5476 124.044 13.2974 124.689 14.5146 124.96C15.3347 125.142 16.3456 125.145 17.7344 125.074L19.2568 124.982L19.2646 124.981C23.9946 124.633 29.5874 122.727 35.2676 119.76C40.605 116.972 46.0739 113.218 51.0518 108.849L52.04 107.967L52.0479 107.96C54.0166 106.14 55.3295 105.067 56.4521 104.398C57.5361 103.753 58.4645 103.472 59.6992 103.301L59.71 103.299L59.7197 103.298C60.7598 103.131 62.3875 102.614 64.127 101.95C65.8879 101.278 67.8391 100.426 69.5508 99.5508H69.5518L75.0771 96.7217L75.9844 97.8662L75.9922 97.876C76.8349 98.9131 77.168 99.8288 77.1016 100.967C77.0304 102.185 76.497 103.744 75.3545 106.029C70.1131 116.364 62.3467 127.241 53.9121 136.601C45.4691 145.97 36.4142 153.755 28.6221 157.962V157.963C26.0103 159.347 24.0785 160.965 23.0537 162.747C21.9935 164.591 21.9334 166.577 23.0205 168.434L23.0225 168.437C23.5293 169.294 24.0647 170.016 24.9375 170.438C25.7713 170.842 26.7718 170.902 28.0107 170.864H28.0098C30.6568 170.856 32.9887 169.688 38.2236 166.149H38.2227C56.6546 153.741 72.2874 137.952 83.2744 120.742L84.3223 119.072L84.3281 119.063L84.333 119.055C85.6762 116.777 86.9255 114.782 87.4629 113.935C87.5865 113.977 87.7429 114.037 87.9326 114.123C88.6134 114.432 89.5327 114.963 90.5557 115.639C92.5985 116.988 94.9128 118.819 96.3721 120.348C97.9078 121.99 99.654 124.457 101.019 126.765C101.699 127.915 102.271 129.006 102.671 129.913C102.871 130.367 103.022 130.762 103.121 131.088C103.199 131.343 103.234 131.523 103.247 131.638C103.243 131.648 103.239 131.66 103.233 131.673C103.186 131.787 103.106 131.951 102.991 132.169C102.763 132.601 102.424 133.183 101.996 133.878C101.356 134.917 100.532 136.184 99.6133 137.532L98.667 138.903C92.754 147.361 89.159 153.279 80.3633 169.08V169.081C76.5691 175.85 71.6074 183.842 69.3418 186.839L69.334 186.85C58.6493 201.365 38.0741 218.115 13.2539 232.456C8.45182 235.226 5.61358 236.992 4.00684 238.639C3.17255 239.494 2.63804 240.345 2.32715 241.312C2.02306 242.257 1.95314 243.252 1.95312 244.346C1.95312 246.054 2.32943 247.544 3.08301 248.74C3.84226 249.945 4.94974 250.797 6.30176 251.268Z" fill="white" stroke="#FF2C73" stroke-width="2"/>
<path d="M193.222 254.402C200.268 258.04 207.296 250.928 203.642 243.958L203.631 243.938L203.62 243.918C203.505 243.721 203.285 243.445 203.046 243.157C202.786 242.845 202.439 242.446 202.021 241.976C201.182 241.033 200.035 239.781 198.664 238.312C195.921 235.373 192.266 231.552 188.352 227.563L188.353 227.562C180.545 219.533 168.642 206.517 161.88 198.566L161.881 198.565C143.574 176.985 138.224 171.171 131.732 165.888C130.122 164.577 128.6 163.393 127.429 162.533C126.845 162.105 126.336 161.749 125.943 161.496C125.749 161.371 125.566 161.261 125.408 161.179C125.33 161.138 125.24 161.096 125.147 161.061C125.08 161.035 124.907 160.972 124.695 160.972C124.332 160.972 124.066 161.141 123.939 161.235C123.793 161.344 123.671 161.473 123.575 161.588C123.38 161.82 123.188 162.118 123.008 162.434C122.642 163.074 122.249 163.922 121.901 164.81L121.899 164.816L121.896 164.823C121.594 165.628 120.797 167.164 119.707 169.026C118.63 170.868 117.303 172.969 115.978 174.883L115.976 174.887C114.669 176.791 113.491 178.548 112.647 179.841C112.227 180.486 111.885 181.021 111.651 181.404C111.536 181.593 111.439 181.758 111.371 181.885C111.339 181.944 111.3 182.019 111.269 182.095C111.255 182.127 111.225 182.202 111.204 182.297C111.194 182.341 111.175 182.44 111.181 182.565C111.185 182.668 111.213 182.974 111.475 183.235C111.525 183.285 111.57 183.319 111.58 183.327C111.598 183.341 111.614 183.353 111.625 183.36C111.647 183.375 111.669 183.39 111.687 183.401C111.723 183.425 111.769 183.453 111.819 183.484C111.922 183.548 112.066 183.635 112.243 183.741C112.598 183.954 113.1 184.254 113.709 184.616C114.929 185.342 116.584 186.328 118.368 187.406L118.38 187.413C131.368 195.014 139.185 201.707 165.629 227.927V227.928C172.707 234.931 179.322 241.396 184.279 246.167C186.757 248.552 188.825 250.516 190.33 251.914C191.082 252.612 191.698 253.174 192.158 253.577C192.387 253.778 192.585 253.946 192.743 254.073C192.868 254.174 193.045 254.311 193.209 254.396V254.396C193.21 254.397 193.212 254.398 193.213 254.398C193.216 254.4 193.219 254.402 193.222 254.403V254.402Z" fill="white" stroke="#FF2C73" stroke-width="2"/>
</svg>
