<svg width="26" height="25" viewBox="0 0 26 25" fill="none" xmlns="http://www.w3.org/2000/svg">
<path d="M12.6923 25V19.5546M12.6923 19.5546H13.9231H15.7692H16.2105C17.0062 19.5546 17.7978 19.4403 18.561 19.2152V19.2152C19.1595 19.0387 19.7361 18.7953 20.2801 18.4897L20.4301 18.4054C20.7412 18.2306 21.0383 18.0321 21.3188 17.8114L21.4018 17.7461C21.7483 17.4736 22.0635 17.1636 22.3416 16.8217V16.8217C22.6089 16.4933 22.8404 16.1374 23.0323 15.7601L23.5641 14.7143L24.0097 14.0572C24.2588 13.6898 24.4645 13.2947 24.6227 12.88L24.6291 12.8632C24.8743 12.2203 25 11.538 25 10.85V10.5753C25 9.97969 24.8772 9.39046 24.6392 8.84445V8.84445C24.4704 8.45723 24.2459 8.09679 23.9727 7.77456L23.8445 7.62327C23.5234 7.24441 23.1373 6.92586 22.7043 6.6826L22.5888 6.61773C22.15 6.37118 21.6638 6.22053 21.1625 6.17571V6.17571C20.2061 6.09023 19.3248 5.62192 18.7188 4.87714L18.0256 4.02521L17.0777 2.93792C16.8894 2.72192 16.6848 2.52071 16.4657 2.33604V2.33604C15.7398 1.72432 14.8703 1.30727 13.9388 1.12411L13.6096 1.05937C13.4088 1.01988 13.2046 1 13 1V1C12.7954 1 12.5912 1.01988 12.3904 1.05937L12.0612 1.12411C11.1297 1.30727 10.2602 1.72432 9.5343 2.33604V2.33604C9.31517 2.52071 9.11056 2.72192 8.92225 2.93792L7.97436 4.02521L7.28117 4.87714C6.67515 5.62192 5.79389 6.09023 4.83752 6.17571V6.17571C4.33616 6.22053 3.85001 6.37118 3.41117 6.61773L3.29571 6.6826C2.86273 6.92586 2.47661 7.24441 2.15549 7.62327L2.02726 7.77456C1.75414 8.09679 1.52963 8.45723 1.36085 8.84445V8.84445C1.12284 9.39046 1 9.97969 1 10.5753V10.85C1 11.538 1.1257 12.2203 1.3709 12.8632L1.3773 12.88C1.53549 13.2947 1.7412 13.6898 1.99032 14.0572L2.02564 14.1092M12.6923 19.5546H12.0769H10.2308H9.78951C8.99379 19.5546 8.2022 19.4403 7.43899 19.2152V19.2152C6.84054 19.0387 6.26388 18.7953 5.71992 18.4897L5.56992 18.4054C5.25881 18.2306 4.9617 18.0321 4.68122 17.8114L4.59819 17.7461C4.25175 17.4736 3.93654 17.1636 3.65835 16.8217V16.8217C3.39115 16.4933 3.15964 16.1374 2.96773 15.7601L2.4359 14.7143L2.02564 14.1092M12.6923 19.5546V18.1429M12.6923 18.1429V18.1429C12.4206 17.6086 12.0641 17.1219 11.6367 16.7016L11.2564 16.3277V16.3277C10.848 15.9261 10.388 15.5805 9.88864 15.3L9.20513 14.916L7.76923 14.3109L7.46753 14.1838C6.71896 13.8684 5.91487 13.7059 5.10256 13.7059V13.7059H4.51149C4.08573 13.7059 3.66068 13.7405 3.24052 13.8093V13.8093C2.84145 13.8747 2.44803 13.9708 2.06375 14.0968L2.02564 14.1092M12.6923 18.1429C12.964 17.6085 13.3216 17.1208 13.7512 16.6984L14.1282 16.3277C14.5366 15.9262 14.9977 15.5799 15.4992 15.2982L16.1795 14.916L17.6154 14.3109L17.92 14.1826C18.6664 13.8681 19.47 13.7059 20.2821 13.7059C21.1012 13.7059 21.9189 13.7724 22.7268 13.9048M22.7268 13.9048L22.7436 13.9076M22.7268 13.9048L23.7692 14.1826" stroke="#1C1C1C" stroke-width="1.3"/>
</svg>
