<svg width="24" height="25" viewBox="0 0 24 25" fill="none" xmlns="http://www.w3.org/2000/svg">
<path d="M3.02941 18.5882L2.58454 17.9951C2.20601 17.4904 1.88911 16.9422 1.64059 16.3624V16.3624C1.21794 15.3762 1 14.3144 1 13.2415V12.8126C1 12.3794 1.03579 11.947 1.10699 11.5198V11.5198C1.25994 10.6021 1.57452 9.71886 2.0361 8.9111L2.11192 8.7784C2.49638 8.10561 2.96881 7.48707 3.51674 6.93915L3.8579 6.59798C4.43162 6.02426 5.06061 5.50861 5.7357 5.05855L6.75 4.38235V4.38235C8.10043 3.70714 9.50652 3.14951 10.9527 2.71567L12.1618 2.35294L15.2059 1.67647L17.9118 1.33824L20.6176 1H23.0433C23.3964 1 23.5732 1.42684 23.3235 1.67647V1.67647L21.9706 3.36765L20.6176 5.39706V5.39706C19.9426 6.74709 19.3943 8.15681 18.9796 9.60812L18.9265 9.79412V9.79412C18.7013 11.145 18.3707 12.4761 17.9376 13.7754L17.9118 13.8529L16.8971 16.2206L16.4814 17.0519C16.3079 17.3989 16.1035 17.7297 15.8706 18.0401V18.0401C15.4307 18.6267 14.8942 19.1343 14.284 19.541L14.1968 19.5992C13.5216 20.0493 12.774 20.38 11.9868 20.5768L11.5451 20.6873C10.8315 20.8657 10.0986 20.9559 9.36301 20.9559V20.9559C8.52704 20.9559 7.69099 20.8382 6.88719 20.6085V20.6085C6.12519 20.3908 5.39111 20.0729 4.71155 19.6652L4.04412 19.2647L3.02941 18.5882ZM3.02941 18.5882L4.04412 16.8971L5.73529 14.5294L6.36337 13.8116C7.52129 12.4883 8.7815 11.2581 10.1324 10.1324V10.1324L12.1618 8.44118L14.8676 6.75M3.02941 18.5882L2.35294 19.9412L2.30015 20.0468C1.88561 20.8758 1.56305 21.7478 1.33824 22.6471V22.6471L1 24" stroke="#1C1C1C" stroke-linecap="round"/>
</svg>
