<svg width="20" height="20" viewBox="0 0 20 20" fill="none" xmlns="http://www.w3.org/2000/svg">
<path d="M13.9997 0.999947C13.9997 0.723804 14.2235 0.5 14.4996 0.5L18.9992 0.5C19.2753 0.5 19.4991 0.723804 19.4991 0.999947V5.49947C19.4991 5.77561 19.2753 5.99941 18.9992 5.99941C18.723 5.9994 18.4992 5.7756 18.4992 5.49947V2.207L10.8219 9.88436L10.1147 9.17725L17.7921 1.49989L14.4996 1.49989C14.2235 1.49989 13.9997 1.27608 13.9997 0.999947Z" fill="#1C1C1C"/>
<path d="M5.99941 18.9992C5.99941 19.2753 5.77561 19.4991 5.49947 19.4991H0.999947C0.723804 19.4991 0.5 19.2753 0.5 18.9992V14.4996C0.5 14.2235 0.723804 13.9997 0.999947 13.9997C1.27608 13.9997 1.49989 14.2235 1.49989 14.4996V17.7921L9.17725 10.1148L9.88436 10.8219L2.207 18.4992H5.49947C5.7756 18.4992 5.9994 18.723 5.99941 18.9992Z" fill="#1C1C1C"/>
</svg>
