<svg width="27" height="27" viewBox="0 0 27 27" fill="none" xmlns="http://www.w3.org/2000/svg">
<path d="M9.8916 7.43359C10.0211 7.42833 10.1336 7.50286 10.1924 7.63281L10.208 7.70117C10.2085 7.72401 10.2049 7.74723 10.1992 7.77051C10.1879 7.81635 10.1648 7.87354 10.1289 7.94727C10.0565 8.09582 9.92081 8.334 9.68262 8.72754C9.2053 9.51613 8.3082 10.9425 6.6582 13.5566C5.67073 15.1211 4.77291 16.5451 4.12207 17.5791C3.79664 18.0961 3.5329 18.5159 3.35059 18.8066C3.2939 18.897 3.24443 18.9745 3.2041 19.0391C3.25252 19.0233 3.30641 19.0074 3.3623 18.9883C3.93025 18.7937 4.74029 18.751 5.30957 18.8857C7.18895 19.3308 8.42974 21.2141 8.06641 23.0801C8.04764 23.1765 8.03086 23.2673 8.01758 23.3447C8.0817 23.2925 8.16148 23.2281 8.25488 23.1514C8.53078 22.9247 8.92934 22.5958 9.41992 22.1895C10.4012 21.3767 11.7528 20.2536 13.2373 19.0166C14.7219 17.7795 16.0774 16.6543 17.0654 15.8389C17.5594 15.4312 17.9616 15.1007 18.2422 14.8721C18.3823 14.7579 18.4923 14.6689 18.5684 14.6084C18.6063 14.5782 18.6371 14.5552 18.6582 14.5391C18.6686 14.5311 18.6774 14.5236 18.6846 14.5186C18.688 14.5162 18.6928 14.5134 18.6973 14.5107C18.6994 14.5094 18.7034 14.5071 18.708 14.5049C18.7105 14.5037 18.7145 14.5017 18.7197 14.5C18.7237 14.4987 18.736 14.4951 18.752 14.4951L18.8057 14.5029C18.8235 14.5075 18.8411 14.5133 18.8555 14.5186C18.8891 14.5309 18.9265 14.5479 18.9609 14.5664C18.9777 14.5754 19.001 14.5876 19.0205 14.5996C19.0403 14.6118 19.0656 14.629 19.0859 14.6543C19.1083 14.6823 19.1233 14.7183 19.124 14.7598C19.1246 14.7982 19.113 14.8347 19.0967 14.8682C19.0648 14.9334 19.0021 15.0116 18.9072 15.1113C18.8105 15.213 18.6734 15.3442 18.4844 15.5146C17.7289 16.196 16.1185 17.5354 12.8594 20.249C11.1466 21.6751 9.55271 22.9928 8.36426 23.9668C7.77004 24.4538 7.27672 24.8546 6.9209 25.1406C6.74303 25.2836 6.59934 25.3985 6.49414 25.4805C6.39277 25.5595 6.31951 25.6145 6.28906 25.6318C4.49562 26.6547 2.184 25.9409 1.27441 24.084C0.786637 23.0878 0.773402 21.7936 1.24707 20.8564C1.25632 20.8381 1.29719 20.771 1.35938 20.6699C1.42351 20.5657 1.51426 20.4189 1.62793 20.2363C1.85545 19.8709 2.17564 19.36 2.55664 18.752C3.31864 17.5359 4.32748 15.93 5.3418 14.3184C7.36763 11.0995 9.41898 7.85019 9.56738 7.63574C9.6506 7.51575 9.76785 7.43865 9.8916 7.43359ZM4.78418 19.5381C4.40758 19.5055 4.02677 19.5317 3.72168 19.6201C2.72338 19.9096 1.94896 20.7133 1.68457 21.7373C1.6251 21.9678 1.60213 22.2748 1.61621 22.585C1.63029 22.895 1.68039 23.2001 1.76074 23.4277C2.22454 24.7407 3.58896 25.5654 4.94336 25.3545C6.17261 25.1629 7.17465 24.1717 7.37988 22.9443C7.59217 21.6742 6.94015 20.3778 5.79785 19.7988C5.52567 19.6609 5.1611 19.5707 4.78418 19.5381ZM20.2959 0.952148C20.7609 0.873389 21.4312 0.885053 21.9678 0.979492C23.8966 1.31892 25.4011 2.71558 25.959 4.67773C26.0541 5.01215 26.0994 5.50119 26.0996 5.9834C26.0998 6.46563 26.0548 6.95456 25.96 7.28809C25.8079 7.82279 25.5546 8.3812 25.2695 8.80859C25.2327 8.86382 25.115 8.99555 24.9492 9.1748C24.78 9.35767 24.5522 9.59774 24.2861 9.875C23.7536 10.4299 23.0662 11.1346 22.3828 11.8271C21.6994 12.5197 21.0193 13.2009 20.5029 13.709C20.2448 13.9629 20.0273 14.1744 19.8701 14.3223C19.7918 14.3959 19.7275 14.4545 19.6807 14.4951C19.6574 14.5153 19.6365 14.5327 19.6201 14.5449C19.6122 14.5508 19.6035 14.5573 19.5947 14.5625C19.5903 14.5651 19.5836 14.5682 19.5762 14.5713C19.5706 14.5736 19.5547 14.5801 19.5342 14.5801C19.5122 14.58 19.495 14.5732 19.4883 14.5703C19.4795 14.5665 19.471 14.5614 19.4648 14.5576C19.4525 14.5501 19.4391 14.5405 19.4258 14.5303C19.3983 14.5092 19.3631 14.4793 19.3223 14.4434C19.2402 14.371 19.1291 14.269 19.001 14.1465C18.7444 13.9012 18.4134 13.573 18.0859 13.2422C17.7585 12.9114 17.4341 12.5765 17.1914 12.3174C17.0702 12.188 16.9681 12.077 16.8965 11.9941C16.8611 11.9531 16.8323 11.9174 16.8115 11.8896C16.8012 11.876 16.7907 11.8622 16.7832 11.8496C16.7795 11.8434 16.7752 11.8349 16.7715 11.8262L16.7627 11.7812L16.7715 11.7354C16.775 11.7272 16.7799 11.7204 16.7832 11.7148C16.7899 11.7038 16.7978 11.6915 16.8066 11.6797C16.8248 11.6554 16.8507 11.6243 16.8818 11.5879C16.9446 11.5146 17.0345 11.4144 17.1445 11.2959C17.3649 11.0587 17.6685 10.7436 18.002 10.4072L19.2129 9.18555L19.2461 9.15137L19.2939 9.15625L19.6348 9.19238C20.2764 9.25986 21.0236 8.9347 21.3896 8.43262C21.6761 8.03959 21.7816 7.67201 21.7559 7.1377C21.7419 6.84844 21.7028 6.63146 21.627 6.44141C21.5513 6.25205 21.4362 6.08295 21.2598 5.89258C21.1255 5.74768 20.8712 5.55377 20.7012 5.4668C20.5539 5.39153 20.4682 5.35515 20.3604 5.33496C20.2485 5.31408 20.1082 5.30957 19.8486 5.30957C19.596 5.30957 19.4529 5.31408 19.3398 5.33398C19.2309 5.3532 19.146 5.38708 19.0107 5.4541C18.6063 5.65451 18.2702 6.00197 18.0723 6.4248C17.9976 6.58438 17.9584 6.68472 17.9355 6.7998C17.9124 6.91689 17.9054 7.05398 17.9023 7.28906L17.8955 7.82617L17.8945 7.86719L17.8662 7.89551L17.2441 8.52539C17.0675 8.7042 16.8988 8.86349 16.7656 8.97852C16.6993 9.03581 16.64 9.08339 16.5928 9.11719C16.5693 9.13397 16.5467 9.14917 16.5264 9.16016C16.5163 9.16561 16.5048 9.17052 16.4932 9.1748C16.4826 9.17866 16.465 9.18457 16.4443 9.18457C16.4274 9.18457 16.4099 9.17991 16.4004 9.17773C16.3877 9.17483 16.3722 9.17079 16.3555 9.16602C16.3219 9.15641 16.2772 9.14311 16.2246 9.12598C16.1188 9.0915 15.9755 9.04243 15.8076 8.9834C15.471 8.86507 15.0327 8.70626 14.5938 8.54395C14.1551 8.38172 13.7149 8.21556 13.373 8.08301C13.2022 8.01675 13.0551 7.95832 12.9453 7.91309C12.8905 7.89049 12.8442 7.87044 12.8086 7.85449C12.7757 7.83976 12.7451 7.82548 12.7266 7.81348C12.6798 7.78315 12.6384 7.74199 12.6084 7.69922C12.5804 7.65922 12.5528 7.60423 12.5527 7.54688C12.5527 7.52656 12.5583 7.51032 12.5605 7.50488C12.5635 7.49757 12.5678 7.49169 12.5703 7.4873C12.5755 7.47838 12.581 7.46895 12.5869 7.46094C12.5989 7.44454 12.616 7.42464 12.6357 7.40137C12.6758 7.35414 12.734 7.28894 12.8066 7.20996C12.9522 7.05174 13.1603 6.8328 13.4102 6.57324C13.9103 6.0537 14.5803 5.36986 15.2617 4.68262C15.9432 3.99538 16.6363 3.30436 17.1816 2.76953C17.4543 2.50215 17.6907 2.27304 17.8701 2.10352C17.9596 2.01895 18.0353 1.94866 18.0947 1.89551C18.1523 1.84398 18.1992 1.80394 18.2285 1.78418C18.8179 1.38711 19.6092 1.0685 20.2959 0.952148ZM24.2725 3.02637C23.2594 1.90657 21.6988 1.39122 20.2383 1.69238C19.4884 1.84708 18.821 2.18193 18.2236 2.70312C17.9776 2.91776 16.7811 4.10802 15.6465 5.25391C15.0802 5.82584 14.5304 6.38567 14.125 6.80371C13.9225 7.01255 13.756 7.18567 13.6416 7.30762C13.6096 7.34172 13.5818 7.37209 13.5586 7.39746C13.5615 7.39861 13.5644 7.40018 13.5674 7.40137C13.6484 7.43315 13.7626 7.4771 13.8984 7.52832C14.1699 7.6307 14.5287 7.76378 14.8877 7.89551C15.2467 8.02723 15.6059 8.15746 15.8789 8.25488C16.0155 8.30363 16.1307 8.34397 16.2129 8.37207C16.252 8.38545 16.2832 8.39616 16.3057 8.40332C16.309 8.40082 16.3134 8.39865 16.3174 8.39551C16.345 8.37384 16.3827 8.34113 16.4287 8.2998C16.521 8.21697 16.6422 8.10141 16.7686 7.97461C16.9995 7.74274 17.1042 7.63592 17.1523 7.55859C17.1732 7.52504 17.18 7.50101 17.1826 7.47656C17.1857 7.4477 17.1833 7.41351 17.1768 7.35352C17.1587 7.18735 17.1892 6.94176 17.2441 6.69922C17.2995 6.45468 17.383 6.19934 17.4785 6.01074C18.1121 4.76005 19.6689 4.20652 20.915 4.79492C21.6579 5.14576 22.1047 5.64569 22.3623 6.41504C22.4147 6.57139 22.4468 6.69583 22.4629 6.84082C22.4788 6.98409 22.4787 7.14493 22.4697 7.37305C22.46 7.6209 22.4495 7.77837 22.415 7.92383C22.3802 8.07055 22.3222 8.20118 22.2266 8.39648C21.9693 8.92175 21.483 9.41624 20.9863 9.65332C20.8048 9.74001 20.5535 9.81535 20.3125 9.86426C20.0732 9.91281 19.83 9.93815 19.667 9.91895C19.6253 9.91403 19.6048 9.9143 19.5801 9.92285C19.5511 9.93288 19.5086 9.95765 19.4336 10.0195C19.2829 10.1439 19.0358 10.3909 18.5566 10.875L17.6279 11.8115L18.583 12.7734L19.5361 13.7334L21.8594 11.3955C22.5174 10.733 23.1479 10.089 23.6328 9.58496C24.1203 9.07825 24.4544 8.71912 24.5283 8.62207C25.0824 7.89382 25.3402 7.16632 25.3906 6.18066C25.4533 4.95467 25.0904 3.93049 24.2725 3.02637Z" fill="#1C1C1C" stroke="#1C1C1C" stroke-width="0.2"/>
</svg>
