<svg width="23" height="24" viewBox="0 0 23 24" fill="none" xmlns="http://www.w3.org/2000/svg">
<path d="M20.6875 11.3265V23H2.3125V11.3265M20.6875 11.3265H22V5.4898H16.3125M20.6875 11.3265H2.3125M2.3125 11.3265H1V5.4898H7.5625M11.5 5.4898V4.14286M11.5 5.4898H16.3125M11.5 5.4898H7.5625M11.5 4.14286C11.5 4.14286 12.2482 3.2629 12.8125 2.79592C13.292 2.39906 14.0318 1.76994 14.5625 1.44898C15.2208 1.05088 15.1109 1 15.875 1C16.4153 1 16.7509 1.12241 17.1875 1.44898C17.6853 1.82133 17.9356 2.17729 18.0625 2.79592C18.1329 3.13907 18.1295 3.35001 18.0625 3.69388C17.873 4.66647 16.3125 5.4898 16.3125 5.4898M11.5 4.14286C11.5 4.14286 10.5595 2.88876 9.75 2.34694C8.97933 1.83114 8.47414 1.57656 7.5625 1.44898C7.05464 1.37791 6.72112 1.24177 6.25 1.44898C5.80582 1.64434 5.56536 1.89111 5.375 2.34694C5.17309 2.83042 5.21291 3.19486 5.375 3.69388C5.60423 4.3996 6.6875 5.04082 6.6875 5.04082L7.5625 5.4898" stroke="#1C1C1C"/>
</svg>
