<svg width="22" height="29" viewBox="0 0 22 29" fill="none" xmlns="http://www.w3.org/2000/svg">
<path d="M21 5.20779V1H10.7138V5.20779M21 5.20779V17.3074C21 18.3348 20.6957 19.3392 20.1256 20.1939V20.1939C19.7758 20.7183 19.3336 21.1747 18.8205 21.5409L17.1404 22.7403L13.6316 24.8442L10.1228 26.5974L8.38205 27.343C7.90748 27.5462 7.40672 27.6818 6.89443 27.7458L6.84201 27.7524C5.56321 27.9121 4.26959 27.6069 3.19708 26.8923L3.14402 26.857C2.8849 26.6844 2.64346 26.4865 2.42321 26.2664V26.2664C1.7258 25.5695 1.26368 24.672 1.10149 23.6994L1.06935 23.5068C1.0232 23.23 1 22.9499 1 22.6693V22.4857C1 21.9589 1.10057 21.4371 1.2963 20.948V20.948C1.56206 20.2841 1.99538 19.7003 2.55399 19.2537L3.06909 18.8419C3.32677 18.6359 3.59944 18.4494 3.88484 18.2839L8.24798 15.7543C9.77424 14.8694 10.7138 13.2387 10.7138 11.4744V5.20779M21 5.20779H10.7138" stroke="#1C1C1C" stroke-linecap="round"/>
</svg>
