<svg width="23" height="14" viewBox="0 0 23 14" fill="none" xmlns="http://www.w3.org/2000/svg">
<path d="M1.85594 6.25H6.42794C6.79994 6.25 7.15394 6.196 7.48994 6.088C7.82594 5.968 8.11994 5.8 8.37194 5.584C8.62394 5.368 8.82194 5.11 8.96594 4.81C9.12194 4.498 9.19994 4.144 9.19994 3.748C9.19994 2.956 8.97194 2.332 8.51594 1.876C8.05994 1.42 7.36394 1.192 6.42794 1.192H1.85594V6.25ZM0.631938 0.147999H6.51794C7.04594 0.147999 7.54394 0.213999 8.01194 0.346C8.49194 0.478 8.90594 0.681999 9.25394 0.957999C9.61394 1.222 9.89594 1.57 10.0999 2.002C10.3159 2.422 10.4239 2.92 10.4239 3.496C10.4239 4.312 10.2139 5.02 9.79394 5.62C9.37394 6.22 8.74994 6.604 7.92194 6.772V6.808C8.34194 6.868 8.68994 6.982 8.96594 7.15C9.24194 7.306 9.46394 7.51 9.63194 7.762C9.81194 8.014 9.93794 8.308 10.0099 8.644C10.0939 8.968 10.1479 9.322 10.1719 9.706C10.1839 9.922 10.1959 10.186 10.2079 10.498C10.2199 10.81 10.2439 11.128 10.2799 11.452C10.3159 11.764 10.3699 12.064 10.4419 12.352C10.5259 12.628 10.6339 12.844 10.7659 13H9.41594C9.34394 12.88 9.28394 12.736 9.23594 12.568C9.19994 12.388 9.16994 12.208 9.14594 12.028C9.13394 11.836 9.12194 11.65 9.10994 11.47C9.09794 11.29 9.08594 11.134 9.07394 11.002C9.04994 10.546 9.00794 10.096 8.94794 9.652C8.89994 9.196 8.78594 8.794 8.60594 8.446C8.43794 8.086 8.18594 7.798 7.84994 7.582C7.52594 7.366 7.07594 7.27 6.49994 7.294H1.85594V13H0.631938V0.147999ZM12.5118 0.147999H13.7358V8.104C13.7358 8.848 13.8198 9.484 13.9878 10.012C14.1558 10.528 14.4018 10.954 14.7258 11.29C15.0498 11.614 15.4458 11.854 15.9138 12.01C16.3818 12.154 16.9098 12.226 17.4978 12.226C18.0978 12.226 18.6318 12.154 19.0998 12.01C19.5678 11.854 19.9638 11.614 20.2878 11.29C20.6118 10.954 20.8578 10.528 21.0258 10.012C21.1938 9.484 21.2778 8.848 21.2778 8.104V0.147999H22.5018V8.374C22.5018 9.034 22.4058 9.664 22.2138 10.264C22.0338 10.852 21.7398 11.368 21.3318 11.812C20.9358 12.256 20.4198 12.61 19.7838 12.874C19.1598 13.126 18.3978 13.252 17.4978 13.252C16.6098 13.252 15.8478 13.126 15.2118 12.874C14.5878 12.61 14.0718 12.256 13.6638 11.812C13.2678 11.368 12.9738 10.852 12.7818 10.264C12.6018 9.664 12.5118 9.034 12.5118 8.374V0.147999Z" fill="#1C1C1C"/>
</svg>
