<svg width="327" height="172" viewBox="0 0 327 172" fill="none" xmlns="http://www.w3.org/2000/svg">
<path d="M308.143 170.789C314.571 170.789 317.953 170.793 319.94 170.466C320.976 170.295 321.737 170.022 322.384 169.552C322.996 169.107 323.442 168.525 323.898 167.932C325.181 166.317 326.031 164.941 325.999 163.449C325.967 161.962 325.061 160.642 323.785 159.131L323.778 159.122L323.771 159.114C323.242 158.513 322.727 157.957 321.997 157.514C321.265 157.069 320.386 156.777 319.161 156.551C316.757 156.107 312.69 155.866 305.052 155.439H305.051C296.37 154.963 286.244 153.916 282.618 153.079L282.595 153.073C279.15 152.365 275.809 151.447 273.343 150.582C272.105 150.148 271.118 149.738 270.456 149.388C270.264 149.286 270.113 149.195 269.998 149.119C270.114 148.891 270.273 148.593 270.473 148.239C270.928 147.434 271.564 146.374 272.274 145.237H272.273C272.985 144.147 273.65 143.127 274.149 142.354C274.36 142.028 274.541 141.744 274.686 141.518C274.734 141.535 274.788 141.553 274.844 141.574C275.384 141.784 276.134 142.124 276.971 142.542C279.217 143.716 283.381 144.809 287.905 145.608C292.465 146.414 297.532 146.947 301.658 146.947C307.181 146.947 309.843 146.46 313.284 144.638L313.283 144.637C315.938 143.256 318.502 140.798 320.504 138.034C322.507 135.27 324.023 132.097 324.484 129.227L324.561 128.695C325.261 123.165 323.157 116.323 319.606 110.195C315.931 103.852 310.586 98.0616 304.787 95.0869L304.788 95.0859C304.154 94.7569 303.757 94.5164 303.458 94.2393C303.18 93.982 302.948 93.6559 302.731 93.1045C302.263 91.9115 301.94 89.8907 301.409 85.8359L301.41 85.835C300.21 76.3277 298.001 66.9836 295.234 59.1045C292.478 51.255 289.132 44.7524 285.6 41.0215L285.597 41.0186C284.594 39.9678 283.748 39.1314 282.998 38.5352C282.255 37.9443 281.507 37.507 280.697 37.3926C279.842 37.2718 279.083 37.5307 278.378 37.9844C277.706 38.4163 277.018 39.0672 276.261 39.8467L275.952 40.1533C274.45 41.6835 273.566 43.1891 273.77 45.083C273.971 46.9481 275.228 48.968 277.212 51.5664C280.516 55.9417 283.667 62.2775 285.993 68.8193C288.322 75.369 289.786 82.0186 289.786 87.0088V89.1562H283.156C281.315 89.1562 279.946 89.1499 278.883 89.0977C277.815 89.0452 277.123 88.9491 276.617 88.7949C275.719 88.5212 275.295 88.054 274.235 86.6084L274.231 86.6035C266.156 75.7397 254.9 65.3396 245.416 59.8232L245.406 59.8174C241.649 57.6918 237.856 56.8825 234.909 57.4268C233.426 57.7007 232.115 58.3285 231.17 59.3525C230.215 60.3874 229.704 61.7524 229.704 63.3574C229.704 65.3029 230.689 67.2721 232.082 68.8193C233.395 70.2781 235.164 71.4704 237.075 71.9707L237.46 72.0615C242.975 73.2377 249.189 77.4415 256.782 85.3193C261.536 90.2654 264.038 93.1328 265.054 95.0977C265.543 96.0434 265.619 96.6576 265.531 97.1279C265.44 97.6166 265.14 98.1325 264.497 98.8193L264.495 98.8213C263.099 100.321 261.567 102.94 260.395 105.527C259.802 106.834 259.287 108.163 258.919 109.378C258.556 110.576 258.314 111.73 258.314 112.663V113.869L252.467 111.997L252.464 111.996C249.41 111.026 244.004 109.731 239.016 108.681C236.516 108.154 234.107 107.687 232.133 107.351C230.393 107.054 228.922 106.848 228.032 106.809C228.003 106.781 227.968 106.746 227.928 106.703C227.711 106.474 227.411 106.108 227.024 105.594C226.256 104.571 225.214 103.05 223.93 101.081C221.365 97.1484 217.874 91.4869 213.752 84.5889C205.509 70.7955 194.762 52.0893 183.895 32.4512L183.893 32.4482C177.415 20.8272 173.627 14.1587 170.906 10.0654C168.16 5.93364 166.44 4.33447 164.089 2.90234C161.743 1.45503 159.598 0.762594 157.395 1.06934C155.22 1.37207 153.181 2.62235 150.982 4.62305L150.515 5.04492C148.218 7.17538 146.51 9.67054 144.021 15.6094C141.382 21.9084 137.817 32.1998 131.718 50.2578V50.2568C120.368 83.639 113.339 104.011 108.851 116.155C106.605 122.232 105.004 126.222 103.823 128.744C103.232 130.008 102.761 130.871 102.382 131.434C101.979 132.033 101.776 132.143 101.775 132.144L101.758 132.15L101.741 132.158C101.798 132.133 101.789 132.145 101.607 132.184C101.462 132.215 101.257 132.253 100.992 132.299C100.463 132.389 99.7252 132.502 98.7979 132.634C96.9449 132.898 94.361 133.237 91.2334 133.63C84.9797 134.416 76.5673 135.417 67.5088 136.466V136.467C39.4789 139.613 24.8752 141.258 16.96 142.297C9.09679 143.329 7.68093 143.771 6.19727 144.596V144.597C1.76718 146.903 0.267058 151.039 1.32422 154.678C2.37636 158.299 5.89208 161.2 10.9648 161.252H10.9746C11.3998 161.252 12.9404 161.133 15.2246 160.936C17.5429 160.736 20.696 160.449 24.4072 160.104C31.8303 159.412 41.4944 158.482 51.1992 157.528C70.4711 155.634 90.0094 153.636 92.3691 153.231C92.6664 153.189 92.8849 153.164 93.0459 153.152C93.0449 153.164 93.0452 153.175 93.0439 153.188C93.0097 153.53 92.9199 154.01 92.7754 154.709H92.7744C91.505 159.914 92.1259 163.798 95.0928 166.436L95.1016 166.443C96.4626 167.625 97.8908 168.389 99.375 168.662C100.872 168.937 102.351 168.698 103.772 167.99C106.562 166.602 109.117 163.426 111.434 158.792C112.188 157.282 112.964 155.849 113.605 154.765C113.927 154.221 114.207 153.778 114.43 153.46C114.541 153.3 114.63 153.185 114.694 153.109C114.696 153.108 114.697 153.107 114.698 153.105C114.725 153.097 114.761 153.085 114.808 153.072C114.972 153.027 115.203 152.971 115.5 152.905C116.092 152.775 116.904 152.616 117.883 152.438C119.835 152.084 122.42 151.656 125.176 151.229H125.177C130.237 150.506 132.617 150.171 134.391 150.26C136.079 150.345 137.205 150.813 139.808 151.922C143.052 153.393 148.772 155.099 155.38 156.683C162.024 158.275 169.636 159.76 176.679 160.766C187.993 162.443 202.586 163.303 216.276 163.339C229.526 163.374 242.014 162.637 249.901 161.097L250.65 160.944L250.658 160.943C253.313 160.364 254.727 160.114 255.821 160.166C256.835 160.214 257.623 160.526 259.012 161.312L259.023 161.319L259.036 161.326C269.825 167.06 289.083 170.789 308.143 170.789ZM123.132 130.201C122.775 130.191 122.475 130.173 122.233 130.149C122.285 129.99 122.344 129.809 122.412 129.607C122.688 128.791 123.09 127.668 123.59 126.312C124.588 123.604 125.967 119.988 127.491 116.083C130.164 109.317 136.999 91.5268 143.521 74.2783L146.285 66.9521L146.286 66.9502L158.632 33.8789L162.329 39.9414L162.334 39.9482C164.995 44.2254 174.619 60.5199 183.777 76.166C192.733 91.721 200.89 105.479 201.911 106.992L202.453 107.871C202.498 107.949 202.53 108.015 202.557 108.068H202.556C202.084 108.264 201.171 108.465 199.51 108.722C197.883 108.973 195.653 109.264 192.618 109.67V109.669C174.976 111.97 153.281 118.773 141.4 125.921V125.922C138.846 127.435 137.115 128.315 135.287 128.887C133.456 129.46 131.473 129.74 128.392 129.977L128.382 129.978C126.21 130.166 124.391 130.235 123.132 130.201Z" fill="#FF2C73" stroke="#FF2C73" stroke-width="2"/>
</svg>
