<svg width="221" height="273" viewBox="0 0 221 273" fill="none" xmlns="http://www.w3.org/2000/svg">
<path d="M187.76 2.68164C193.528 0.430671 199.03 0.39722 203.83 2.83691L204.292 3.08105L204.297 3.08301C211.278 6.94441 215.983 13.938 218.305 23.1182C220.625 32.2903 220.585 43.7007 218.056 56.5537V56.5547C214.228 75.9577 205.623 90.8441 193.304 101.685C180.994 112.517 165.036 119.258 146.573 122.482L146.523 122.491L146.474 122.494L132.476 123.515C132.648 123.843 132.832 124.143 133.108 124.496C134.214 125.908 135.538 126.414 137.082 126.473C138.701 126.534 140.506 126.104 142.513 125.618L142.516 125.617C142.519 125.616 142.524 125.615 142.527 125.614H142.528C143.241 125.442 143.975 125.264 144.708 125.111C145.813 124.881 146.692 124.663 147.483 124.467L147.486 124.466C148.723 124.159 149.777 123.897 151.101 123.751C152.423 123.605 153.986 123.578 156.279 123.706C160.005 123.914 167.952 124.911 175.693 127.367C179.566 128.596 183.423 130.2 186.683 132.276C189.836 134.285 192.49 136.773 194.021 139.847L194.166 140.146L194.169 140.153C196.267 144.724 196.525 150.178 195.358 155.107C194.193 160.03 191.575 164.56 187.768 167.199L187.766 167.201C182.939 170.529 176.793 170.915 170.201 168.833C163.616 166.753 156.5 162.193 149.559 155.473L149.553 155.467V155.466L143.948 149.954L143.571 152.535L143.57 152.534C143.123 155.969 141.321 161.608 139.196 166.764C138.127 169.359 136.963 171.863 135.826 173.94C134.761 175.886 133.67 177.549 132.656 178.531L131.422 181.175L130.291 222.336C129.865 238.102 129.366 249.051 128.854 256.322C128.599 259.957 128.339 262.685 128.082 264.642C127.953 265.619 127.824 266.416 127.693 267.042C127.567 267.651 127.428 268.159 127.261 268.523C126.399 270.405 125.228 271.57 123.829 271.904C122.423 272.24 121.11 271.662 120.14 270.774L120.047 270.689L119.979 270.585C119.514 269.876 119.199 268.962 118.952 267.477C118.706 265.993 118.514 263.852 118.348 260.632C118.015 254.184 117.778 243.255 117.446 224.251V224.248L116.786 181.117L110.312 167.048L104.14 181.109L103.48 224.248V224.251C103.149 243.255 102.913 254.184 102.58 260.632C102.414 263.852 102.222 265.993 101.976 267.477C101.729 268.962 101.414 269.876 100.949 270.585L100.88 270.689L100.788 270.774C99.8056 271.674 98.4621 272.234 97.04 271.905C95.6158 271.576 94.4065 270.422 93.5371 268.523C93.3679 268.154 93.2324 267.64 93.1113 267.03C92.9867 266.402 92.865 265.603 92.7461 264.624C92.5082 262.664 92.2742 259.932 92.0439 256.293C91.5832 249.013 91.1353 238.055 90.709 222.291L89.5781 181.142L88.2803 178.541C87.2668 177.565 86.1508 175.906 85.0488 173.957C83.8766 171.884 82.6644 169.383 81.5469 166.791C79.3248 161.637 77.4176 155.987 76.9727 152.543V152.542L76.5977 149.979L70.9932 155.492L70.9873 155.498C64.0462 162.218 56.9306 166.779 50.3457 168.858C43.7536 170.94 37.6075 170.554 32.7812 167.226L32.7783 167.225C28.971 164.585 26.3536 160.055 25.1885 155.133C24.0218 150.203 24.2789 144.749 26.377 140.178L26.3809 140.17C27.8867 136.959 30.6089 134.375 33.8643 132.302C37.1241 130.225 40.9803 128.621 44.8525 127.393C52.5934 124.937 60.5409 123.939 64.2666 123.73C66.5598 123.602 68.1234 123.629 69.4463 123.775C70.7698 123.921 71.8244 124.184 73.0615 124.491C73.8538 124.688 74.7321 124.905 75.8389 125.136C76.5736 125.289 77.31 125.468 78.0244 125.641H78.0254L78.0342 125.643C80.0406 126.129 81.845 126.559 83.4639 126.497C85.0078 126.438 86.3328 125.933 87.4385 124.521C87.716 124.167 87.8987 123.865 88.0713 123.536L74.5244 122.52L74.4756 122.516L74.4268 122.507C55.9642 119.282 40.0057 112.542 27.6963 101.71C15.5697 91.0388 7.04239 76.4466 3.12793 57.4854L2.94434 56.5791C0.414896 43.7257 0.375317 32.315 2.69531 23.1426C5.01727 13.9625 9.72221 6.96983 16.7031 3.1084L16.708 3.10547C21.6159 0.4223 27.2857 0.38351 33.2402 2.70703C39.1741 5.02256 45.4301 9.69237 51.6494 16.5078H51.6484C59.8884 25.3661 65.792 34.1315 72.3799 46.9014L73.0205 48.1504L73.0371 48.1836L73.0518 48.2188L87.3789 82.4795L85.9668 71.2393L85.9512 71.1162L85.9668 70.9932C86.3695 67.7058 86.6788 65.6439 87.2412 63.9014C87.8136 62.1284 88.6338 60.7278 89.9619 58.7314C91.7782 55.914 94.1284 53.5242 96.585 51.9365L97.0781 51.6289C98.1301 50.9974 99.1035 50.3571 99.833 49.8408C100.075 49.6693 100.286 49.5118 100.463 49.377C100.328 49.247 100.163 49.0967 99.9658 48.9277C99.2042 48.2752 98.0905 47.4433 96.8242 46.5811L96.3262 46.2539C91.1543 42.946 85.1566 41.8289 78.8535 42.9258L78.8477 42.9268C77.0972 43.2215 75.8907 43.3864 74.9307 43.2588C73.8541 43.1156 73.1548 42.6213 72.3848 41.9414V41.9404C70.99 40.7121 70.1484 39.3364 69.9658 37.8906C69.781 36.4257 70.2937 35.0538 71.2832 33.9053C73.2178 31.6599 77.0387 30.1563 81.8867 29.8662L82.291 29.8496C84.3784 29.8063 87.4161 30.3217 90.3643 31.085C93.5203 31.902 96.7465 33.0483 98.793 34.2422H98.792C101.137 35.5828 103.827 37.6165 106.219 39.8193C108.104 41.5561 109.847 43.4386 111.097 45.2109C113.63 41.4289 117.738 37.5759 121.902 35.1953L122.3 34.9727C124.352 33.8599 127.372 32.8041 130.331 32.0381C133.476 31.224 136.722 30.6923 138.809 30.8193H138.808C143.656 31.1093 147.478 32.6119 149.413 34.8574C150.403 36.0058 150.914 37.378 150.729 38.8428C150.547 40.2889 149.705 41.665 148.31 42.8936L148.311 42.8945C147.54 43.5744 146.841 44.0688 145.765 44.2119C144.805 44.3395 143.598 44.1746 141.848 43.8799L141.842 43.8789C135.337 42.7469 129.156 43.9716 123.874 47.5303L123.875 47.5312C122.607 48.3945 121.492 49.2277 120.729 49.8809C120.532 50.05 120.366 50.2001 120.231 50.3301C120.408 50.465 120.62 50.6223 120.862 50.7939C121.592 51.3102 122.565 51.9505 123.617 52.582C126.254 54.1618 128.804 56.6853 130.742 59.6963H130.741C132.065 61.6864 132.883 63.085 133.454 64.8545C134.017 66.5969 134.326 68.6582 134.729 71.9453L134.743 72.0645L134.729 72.1826L133.691 81.1475C138.292 68.6499 143.052 57.9661 147.977 48.1318L147.979 48.126C154.829 34.6729 160.845 25.6274 169.351 16.4834L169.935 15.8506C175.961 9.37825 182.011 4.92476 187.76 2.68164Z" fill="#FF2C73" stroke="#FF2C73" stroke-width="2"/>
</svg>
