<svg width="299" height="208" viewBox="0 0 299 208" fill="none" xmlns="http://www.w3.org/2000/svg">
<path d="M8.91447 199.246C9.14567 202.027 10.8653 204.51 13.8726 205.761L14.168 205.877L14.1752 205.88L14.1814 205.883C15.091 206.212 15.8975 206.489 16.8641 206.623C17.8324 206.758 18.9129 206.744 20.4036 206.567C22.6137 206.305 25.8479 205.668 31.1522 204.533L37.1864 203.226L37.1932 203.225C46.414 201.143 58.0661 199.584 75.5725 197.904L81.2294 197.384C108.55 194.846 121.63 193.222 129.728 191.569L129.739 191.568C132.71 190.928 134.468 190.66 136.17 190.741C137.66 190.812 139.154 191.152 141.426 191.828L142.45 192.138L142.453 192.139C157.922 196.84 174.093 195.321 189.87 187.825L189.881 187.82L197.214 184.234L203.753 186.043L203.766 186.045C227.92 192.392 253.739 188.722 278.661 175.361C285.897 171.482 291.049 168.028 294.16 164.825C297.276 161.618 298.534 158.449 297.408 155.286C296.815 153.618 295.958 152.285 294.797 151.382C293.622 150.468 292.212 150.055 290.636 150.102C287.56 150.195 283.808 152.041 279.507 155.352L279.503 155.355L278.292 156.282C265.696 165.763 250.348 172.242 235.604 174.288L234.851 174.385C231.028 174.846 226.39 174.958 222.104 174.759C217.5 174.544 213.436 173.974 211.236 173.153L211.224 173.149L211.213 173.144L209.988 172.721L210.578 172.066C211.079 171.512 211.826 170.425 212.606 169.16C213.401 167.873 214.272 166.335 215.018 164.837C215.649 163.617 216.125 162.714 216.508 162.055C216.867 161.437 217.104 161.112 217.26 160.95C217.264 160.952 217.269 160.955 217.273 160.957C217.374 161.023 217.497 161.118 217.666 161.254C219.259 162.711 221.611 163.917 224.105 164.742C226.621 165.575 229.378 166.051 231.81 165.976C242.642 165.816 253.256 157.645 258.103 146.113L258.103 146.111C260.654 140.001 261.194 134.111 259.723 128.881C258.251 123.642 254.789 119.161 249.517 115.84L249.512 115.836L249.505 115.833L246.801 114.183L249.629 109.573L249.627 109.573C251.305 106.839 255.834 100.629 259.993 95.3729L260.819 94.3358C274.286 77.5434 281.425 64.9491 283.421 54.2455C284.005 51.1142 284.087 48.6212 283.452 46.6502C282.793 44.6032 281.403 43.2438 279.37 42.3159L279.369 42.3163C277.806 41.5597 276.263 41.2534 274.776 41.469C273.277 41.6864 271.932 42.4202 270.758 43.5784C268.449 45.8579 266.736 49.8446 265.599 55.2262L265.597 55.2308C263.903 63.4274 258.261 73.9609 244.72 93.6561C238.825 102.23 235.858 106.513 233.733 108.975C232.687 110.186 231.872 110.923 231.036 111.501C230.187 112.089 229.287 112.536 228.011 113.154L228.01 113.154C220.654 116.731 215.854 121.911 212.594 129.662L212.591 129.671L210.344 135.15L206.138 133.949L202.204 132.824L206.958 122.823L206.961 122.817L206.96 122.816C218.362 98.3864 244.173 57.0178 262.781 33.2486L262.782 33.2483C267.652 27.0238 270.574 22.5148 271.493 19.1907C271.962 17.4925 271.946 15.9747 271.275 14.6743C270.609 13.3856 269.392 12.4936 267.856 11.8377L267.845 11.8333C262.959 9.81146 258.202 10.7209 246.762 15.2541L246.759 15.2554C229.93 21.9935 216.56 31.9148 205.354 46.0334L205.354 46.0337C195.464 58.5078 191.339 69.4371 188.856 90.0463C187.857 97.644 185.976 116.965 185.209 126.383C185.081 125.132 184.957 123.743 184.846 122.276C184.428 116.775 184.168 110.266 184.301 105.996L184.301 105.994C184.71 92.0838 188.85 61.7811 192.622 44.782L192.622 44.7798C195.386 32.1857 196.907 23.6138 197.25 17.4591C197.594 11.2853 196.764 7.40569 194.697 4.29848L194.693 4.29177C192.864 1.58902 189.108 1.09599 185.205 1.91291C181.463 2.6961 177.208 4.73535 173.34 7.83043L172.572 8.46331C157.353 21.3259 146.073 43.6631 143.206 66.4315L142.977 68.3455C140.759 87.9317 143.268 101.724 151.957 118.471L152.221 118.969C155.014 124.138 161.311 133.01 165.365 137.265C165.225 137.378 165.027 137.519 164.753 137.69C163.469 138.489 160.959 139.702 156.466 141.767L156.457 141.771C153.628 143.104 150.906 144.422 148.828 145.465C147.79 145.986 146.905 146.441 146.247 146.796C145.919 146.974 145.64 147.13 145.422 147.26C145.26 147.357 145.068 147.478 144.922 147.599C144.872 147.605 144.687 147.609 144.244 147.418C143.595 147.138 142.707 146.57 141.571 145.693L141.57 145.693C140.345 144.71 138.056 143.346 135.24 141.835C132.387 140.304 128.925 138.584 125.325 136.895C118.139 133.523 110.33 130.241 105.676 128.83L105.675 128.831C101.634 127.538 95.4395 126.182 91.8818 125.747C89.0534 125.4 87.1842 125.268 85.1987 125.538C83.232 125.806 81.2 126.463 78.035 127.589L71.2726 129.995L41.754 114.549L41.7528 114.549C27.0618 106.885 18.9425 102.731 14.0021 100.774C11.5314 99.7956 9.75799 99.3245 8.30064 99.2756C6.78533 99.2249 5.68627 99.6324 4.59404 100.225C2.3303 101.421 1.18606 103.603 1.14816 105.925C1.1107 108.226 2.15012 110.647 4.17732 112.487C4.18181 112.491 4.18688 112.496 4.19149 112.5C4.19452 112.503 4.19759 112.506 4.20061 112.509L4.20029 112.508C4.3722 112.668 4.62661 112.855 4.90077 113.043C5.20476 113.252 5.59154 113.503 6.04594 113.788C6.95572 114.359 8.16246 115.083 9.57426 115.909C11.6931 117.148 14.2868 118.621 17.0598 120.161L19.8812 121.716L19.8849 121.718C36.3175 130.62 55.5727 141.959 83.9311 159.27L83.9308 159.269C95.182 166.184 106.815 173.289 109.761 174.902L112.571 176.571L112.386 176.602L112.376 176.603C109.372 177.125 99.3559 178.015 73.8644 180.108C57.0603 181.485 43.2798 183.127 32.9958 184.967C27.8548 185.887 23.5691 186.859 20.2084 187.878C16.8759 188.889 14.3528 189.974 12.8178 191.164L12.8111 191.169C10.0093 193.378 8.67775 196.398 8.91447 199.246Z" fill="#FF2C73" stroke="#FF2C73" stroke-width="2"/>
</svg>
