<svg width="300" height="208" viewBox="0 0 300 208" fill="none" xmlns="http://www.w3.org/2000/svg">
<path d="M9.53947 199.246C9.77067 202.027 11.4903 204.51 14.4976 205.761L14.793 205.877L14.8002 205.88L14.8064 205.883C15.716 206.212 16.5225 206.489 17.4891 206.623C18.4574 206.758 19.5379 206.744 21.0286 206.567C23.2387 206.305 26.4729 205.668 31.7772 204.533L37.8114 203.226L37.8182 203.225C47.039 201.143 58.6911 199.584 76.1975 197.904L81.8544 197.384C109.175 194.846 122.255 193.222 130.353 191.569L130.364 191.568C133.335 190.928 135.093 190.66 136.795 190.741C138.285 190.812 139.779 191.152 142.051 191.828L143.075 192.138L143.078 192.139C158.547 196.84 174.718 195.321 190.495 187.825L190.506 187.82L197.839 184.234L204.378 186.043L204.391 186.045C228.545 192.392 254.364 188.722 279.286 175.361C286.522 171.482 291.674 168.028 294.785 164.825C297.901 161.618 299.159 158.449 298.033 155.286C297.44 153.618 296.583 152.285 295.422 151.382C294.247 150.468 292.837 150.055 291.261 150.102C288.185 150.195 284.433 152.041 280.132 155.352L280.128 155.355L278.917 156.282C266.321 165.763 250.973 172.242 236.229 174.288L235.476 174.385C231.653 174.846 227.015 174.958 222.729 174.759C218.125 174.544 214.061 173.974 211.861 173.153L211.849 173.149L211.838 173.144L210.613 172.721L211.203 172.066C211.704 171.512 212.451 170.425 213.231 169.16C214.026 167.873 214.897 166.335 215.643 164.837C216.274 163.617 216.75 162.714 217.133 162.055C217.492 161.437 217.729 161.112 217.885 160.95C217.889 160.952 217.894 160.955 217.898 160.957C217.999 161.023 218.122 161.118 218.291 161.254C219.884 162.711 222.236 163.917 224.73 164.742C227.246 165.575 230.003 166.051 232.435 165.976C243.267 165.816 253.881 157.645 258.728 146.113L258.728 146.111C261.279 140.001 261.819 134.111 260.348 128.881C258.876 123.642 255.414 119.161 250.142 115.84L250.137 115.836L250.13 115.833L247.426 114.183L250.254 109.573L250.252 109.573C251.93 106.839 256.459 100.629 260.618 95.3729L261.444 94.3358C274.911 77.5434 282.05 64.9491 284.046 54.2455C284.63 51.1142 284.712 48.6212 284.077 46.6502C283.418 44.6032 282.028 43.2438 279.995 42.3159L279.994 42.3163C278.431 41.5597 276.888 41.2534 275.401 41.469C273.902 41.6864 272.557 42.4202 271.383 43.5784C269.074 45.8579 267.361 49.8446 266.224 55.2262L266.222 55.2308C264.528 63.4274 258.886 73.9609 245.345 93.6561C239.45 102.23 236.483 106.513 234.358 108.975C233.312 110.186 232.497 110.923 231.661 111.501C230.812 112.089 229.912 112.536 228.636 113.154L228.635 113.154C221.279 116.731 216.479 121.911 213.219 129.662L213.216 129.671L210.969 135.15L206.763 133.949L202.829 132.824L207.583 122.823L207.586 122.817L207.585 122.816C218.987 98.3864 244.798 57.0178 263.406 33.2486L263.407 33.2483C268.277 27.0238 271.199 22.5148 272.118 19.1907C272.587 17.4925 272.571 15.9747 271.9 14.6743C271.234 13.3856 270.017 12.4936 268.481 11.8377L268.47 11.8333C263.584 9.81146 258.827 10.7209 247.387 15.2541L247.384 15.2554C230.555 21.9935 217.185 31.9148 205.979 46.0334L205.979 46.0337C196.089 58.5078 191.964 69.4371 189.481 90.0463C188.482 97.644 186.601 116.965 185.834 126.383C185.706 125.132 185.582 123.743 185.471 122.276C185.053 116.775 184.793 110.266 184.926 105.996L184.926 105.994C185.335 92.0838 189.475 61.7811 193.247 44.782L193.247 44.7798C196.011 32.1857 197.532 23.6138 197.875 17.4591C198.219 11.2853 197.389 7.40569 195.322 4.29848L195.318 4.29177C193.489 1.58902 189.733 1.09599 185.83 1.91291C182.088 2.6961 177.833 4.73535 173.965 7.83043L173.197 8.46331C157.978 21.3259 146.698 43.6631 143.831 66.4315L143.602 68.3455C141.384 87.9317 143.893 101.724 152.582 118.471L152.846 118.969C155.639 124.138 161.936 133.01 165.99 137.265C165.85 137.378 165.652 137.519 165.378 137.69C164.094 138.489 161.584 139.702 157.091 141.767L157.082 141.771C154.253 143.104 151.531 144.422 149.453 145.465C148.415 145.986 147.53 146.441 146.872 146.796C146.544 146.974 146.265 147.13 146.047 147.26C145.885 147.357 145.693 147.478 145.547 147.599C145.497 147.605 145.312 147.609 144.869 147.418C144.22 147.138 143.332 146.57 142.196 145.693L142.195 145.693C140.97 144.71 138.681 143.346 135.865 141.835C133.012 140.304 129.55 138.584 125.95 136.895C118.764 133.523 110.955 130.241 106.301 128.83L106.3 128.831C102.259 127.538 96.0645 126.182 92.5068 125.747C89.6784 125.4 87.8092 125.268 85.8237 125.538C83.857 125.806 81.825 126.463 78.66 127.589L71.8976 129.995L42.379 114.549L42.3778 114.549C27.6868 106.885 19.5675 102.731 14.6271 100.774C12.1564 99.7956 10.383 99.3245 8.92564 99.2756C7.41033 99.2249 6.31127 99.6324 5.21904 100.225C2.9553 101.421 1.81106 103.603 1.77316 105.925C1.7357 108.226 2.77512 110.647 4.80232 112.487C4.80681 112.491 4.81188 112.496 4.81649 112.5C4.81952 112.503 4.82259 112.506 4.82561 112.509L4.82529 112.508C4.9972 112.668 5.25161 112.855 5.52577 113.043C5.82976 113.252 6.21654 113.503 6.67094 113.788C7.58072 114.359 8.78746 115.083 10.1993 115.909C12.3181 117.148 14.9118 118.621 17.6848 120.161L20.5062 121.716L20.5099 121.718C36.9425 130.62 56.1977 141.959 84.5561 159.27L84.5558 159.269C95.807 166.184 107.44 173.289 110.386 174.902L113.196 176.571L113.011 176.602L113.001 176.603C109.997 177.125 99.9809 178.015 74.4894 180.108C57.6853 181.485 43.9048 183.127 33.6208 184.967C28.4798 185.887 24.1941 186.859 20.8334 187.878C17.5009 188.889 14.9778 189.974 13.4428 191.164L13.4361 191.169C10.6343 193.378 9.30275 196.398 9.53947 199.246Z" fill="white" stroke="#FF2C73" stroke-width="2"/>
</svg>
