<svg width="358" height="182" viewBox="0 0 358 182" fill="none" xmlns="http://www.w3.org/2000/svg">
<path d="M4.63867 179.212C6.48273 180.679 8.88984 181.197 11.5928 180.785C64.1741 172.774 115.335 165.74 143.337 162.711H143.336L155.103 161.449L159.351 164.182C171.798 172.405 187.816 172.411 199.952 164.056H199.951L203.856 161.451L225.244 163.793H225.245C245.237 165.956 300.181 173.639 334.691 179.052C341.371 180.13 345.1 180.686 347.467 180.756C348.669 180.791 349.584 180.704 350.391 180.471C351.202 180.235 351.841 179.869 352.493 179.443C355.218 177.665 356.758 175.068 356.974 172.31C357.189 169.553 356.074 166.745 353.708 164.555L353.707 164.556C353.435 164.3 353.031 164.075 352.625 163.878C352.182 163.663 351.621 163.428 350.964 163.176C349.647 162.67 347.884 162.075 345.771 161.413C341.544 160.089 335.864 158.484 329.439 156.784C316.59 153.383 300.72 149.591 287.444 146.88L274.055 144.115L257.368 130.307C233.666 110.597 226.342 105.337 213.249 98.7861C210.108 97.2145 207.074 95.724 204.716 94.585C202.584 93.5552 200.951 92.7879 200.317 92.5254C200.363 92.4762 200.415 92.4204 200.476 92.3604C200.769 92.0698 201.183 91.71 201.74 91.2588C202.671 90.5134 203.795 89.1395 204.873 87.583C205.968 86.0026 207.074 84.1483 207.962 82.3721C209.329 79.6372 210.134 77.6983 210.579 75.3291C211.018 72.9916 211.097 70.2763 211.097 66.0098V65.9961C210.988 58.1563 210.551 54.9613 208.52 50.4434L208.519 50.4404C205.656 44.126 200.515 38.8795 195.184 35.5107C195.197 35.3222 195.248 35.0158 195.405 34.5703C195.822 33.3879 196.955 31.3062 199.909 27.9971C205.726 21.4823 213.575 17.6548 222.677 16.7109C225.113 16.4584 226.701 16.2342 227.86 15.749C229.123 15.2204 229.823 14.4104 230.592 13.2891C231.976 11.271 232.577 9.29151 232.326 7.47461C232.073 5.6356 230.972 4.146 229.329 3.08691C226.104 1.00841 220.65 0.467134 214.188 1.84082C211.45 2.42303 207.392 4.25319 203.527 6.42383C199.652 8.6004 195.821 11.2038 193.559 13.4131C190.668 16.2353 188.2 20.8099 186.193 24.5117C185.169 26.4008 184.271 28.0567 183.471 29.2441C183.07 29.8387 182.725 30.2676 182.436 30.5381C182.225 30.735 182.106 30.7886 182.069 30.8027C180.094 30.6218 179.237 30.4726 178.538 30.1064C177.815 29.7277 177.188 29.0846 175.797 27.5732C171.883 22.5589 164.937 17.4988 158.21 14.8486C155.275 13.6627 150.736 12.7291 146.321 12.2109C141.917 11.694 137.464 11.5698 134.713 12.0859V12.0869C128.22 13.2985 123.392 15.8924 121.213 19.0508C120.102 20.6603 119.657 22.4593 120.13 24.2549C120.597 26.0284 121.912 27.6251 123.965 28.9561C125.108 29.6993 126.063 30.1728 127.432 30.1729C128.529 30.1729 129.854 29.8641 131.74 29.3223L132.584 29.0762L132.59 29.0752C141.349 26.4354 150.071 26.9693 157.944 30.751C159.818 31.6618 161.485 32.5634 162.646 33.2939C163.092 33.5752 163.443 33.82 163.696 34.0186C163.434 34.2777 163.081 34.6075 162.651 34.9873C161.738 35.7957 160.512 36.809 159.179 37.8232C155.909 40.305 152.897 43.9975 150.781 48.2275L150.258 49.251C149.1 51.5536 148.385 53.3008 147.97 55.3799C147.501 57.7247 147.423 60.4475 147.423 64.8193C147.423 76.1522 149.856 83.2498 156.034 89.6562L156.04 89.6631L156.047 89.6689C156.999 90.622 157.776 91.506 158.267 92.1602C158.309 92.2167 158.347 92.2714 158.384 92.3223C158.036 92.467 157.599 92.6476 157.093 92.8545C155.838 93.3674 154.165 94.0421 152.384 94.7441L152.379 94.7461C138.143 100.444 126.454 108.668 97.1367 133.673L97.1348 133.674L84.5732 144.432L74.998 146.115L74.9941 146.116C69.5479 147.097 51.8768 151.22 35.7686 155.114L35.7646 155.115C27.5165 157.145 21.1917 158.732 16.3691 160.084C11.5593 161.432 8.18448 162.561 5.86621 163.686C3.55084 164.809 2.129 166.003 1.45801 167.567C0.801357 169.099 0.960636 170.786 1.25781 172.597H1.25879C1.66551 175.471 2.8085 177.756 4.63867 179.212ZM239.768 138.805C239.153 138.764 238.356 138.678 237.354 138.547C234.852 138.22 231.225 137.643 226.256 136.909L226.249 136.907L226.241 136.906L218.13 135.831V123.383L219.646 124.25C221.221 125.196 227.127 129.383 232.759 133.609L232.766 133.614C235.692 135.776 237.882 137.315 239.278 138.411C239.46 138.554 239.623 138.685 239.768 138.805ZM118.094 139.096C118.332 138.921 118.585 138.74 118.85 138.556L119.547 138.08L119.559 138.073L119.569 138.065C120.944 137.095 124.518 134.595 128.321 131.897L132.127 129.183L132.133 129.179L132.138 129.175C134.62 127.339 136.913 125.693 138.608 124.508C139.19 124.102 139.7 123.753 140.121 123.468C140.129 123.63 140.14 123.802 140.147 123.985C140.201 125.304 140.227 127.122 140.174 129.102L140.173 129.115V135.746L128.14 137.668L128.133 137.67C124.574 138.263 121.372 138.721 119.066 138.989C118.72 139.03 118.395 139.064 118.094 139.096Z" fill="#FF2C73" stroke="#FF2C73" stroke-width="2"/>
</svg>
