<svg width="57" height="57" viewBox="0 0 57 57" fill="none" xmlns="http://www.w3.org/2000/svg">
<path d="M28.5 57C44.2401 57 57 44.2401 57 28.5C57 12.7599 44.2401 0 28.5 0C12.7599 0 0 12.7599 0 28.5C0 44.2401 12.7599 57 28.5 57Z" fill="url(#paint0_linear_5745_29893)"/>
<path fill-rule="evenodd" clip-rule="evenodd" d="M12.9012 28.2062C21.2095 24.5864 26.7497 22.2 29.5217 21.047C37.4365 17.755 39.0811 17.1831 40.153 17.1643C40.3888 17.1601 40.9159 17.2185 41.2574 17.4956C41.5457 17.7296 41.6251 18.0456 41.663 18.2674C41.701 18.4892 41.7483 18.9946 41.7107 19.3894C41.2818 23.8959 39.4259 34.8321 38.4818 39.8794C38.0823 42.0152 37.2956 42.7313 36.5341 42.8014C34.879 42.9537 33.6222 41.7076 32.0192 40.6568C29.5109 39.0125 28.0938 37.989 25.659 36.3845C22.8452 34.5302 24.6692 33.511 26.2728 31.8455C26.6925 31.4096 33.9847 24.7768 34.1258 24.1751C34.1435 24.0998 34.1599 23.8193 33.9932 23.6712C33.8266 23.5231 33.5806 23.5737 33.4031 23.614C33.1516 23.6711 29.1444 26.3197 21.3817 31.5598C20.2443 32.3408 19.214 32.7214 18.291 32.7014C17.2734 32.6794 15.3159 32.126 13.8608 31.653C12.0759 31.0729 10.6574 30.7661 10.7809 29.7808C10.8453 29.2676 11.552 28.7427 12.9012 28.2062Z" fill="white"/>
<defs>
<linearGradient id="paint0_linear_5745_29893" x1="28.5" y1="0" x2="28.5" y2="56.5773" gradientUnits="userSpaceOnUse">
<stop stop-color="#FF2C73"/>
<stop offset="1" stop-color="#FF2C73"/>
</linearGradient>
</defs>
</svg>
