<svg width="277" height="206" viewBox="0 0 277 206" fill="none" xmlns="http://www.w3.org/2000/svg">
<path d="M118.26 204.598C142.363 205.343 158.596 201.077 175.729 189.646L176.486 189.136C180.308 186.517 184.589 182.941 188.429 179.271C192.515 175.364 196.16 171.293 198.226 168.1C198.615 167.5 198.914 167.086 199.17 166.803C199.424 166.522 199.58 166.435 199.668 166.405C199.82 166.354 200.14 166.342 201.271 166.971L201.283 166.979L201.297 166.985C205.016 168.913 210.134 168.854 215.347 167.395C220.428 165.972 225.752 163.179 230.263 159.328L230.697 158.952L230.706 158.944L230.716 158.936C234.038 155.862 237.617 150.905 240.512 145.755C243.401 140.613 245.685 135.145 246.318 131.022H246.317C246.618 129.158 246.955 128.197 247.396 127.623C247.795 127.105 248.372 126.783 249.559 126.5H249.56C252.125 125.907 255.322 124.141 258.383 121.863C261.463 119.57 264.507 116.683 266.757 113.743L266.76 113.739C271.053 108.072 274.052 100.634 275.32 93.9463C275.955 90.5998 276.164 87.3995 275.866 84.6709C275.589 82.1352 274.86 79.8877 273.504 78.3496L273.225 78.0518C271.825 76.6507 270.616 75.6915 269.148 75.4902C267.701 75.2918 266.231 75.8665 264.423 76.7715L264.406 76.7793L264.39 76.7891C262.473 77.841 261.105 78.8191 260.31 80.5029C259.549 82.1137 259.38 84.2433 259.38 87.3828C259.38 90.5231 258.256 94.5635 256.456 98.3906C254.656 102.217 252.245 105.692 249.785 107.753L249.776 107.76V107.761C248.695 108.688 247.96 109.278 247.396 109.579C246.875 109.857 246.749 109.764 246.677 109.72C246.449 109.578 246.089 109.151 245.562 108.039C245.056 106.975 244.48 105.476 243.718 103.433C239.685 92.2242 227.535 83.8322 215.715 83.832C215.197 83.832 214.821 83.803 214.556 83.752C214.446 83.7308 214.369 83.7076 214.318 83.6895C214.328 83.6386 214.345 83.5691 214.376 83.4775L214.453 83.2734L214.465 83.2441C215.484 80.5656 216.587 74.5273 217.435 68.0312C218.287 61.4973 218.899 54.3433 218.899 49.3623C218.899 39.6623 217.153 28.6383 214.644 19.7402C213.389 15.2919 211.934 11.3402 210.392 8.33594C209.621 6.83439 208.814 5.54361 207.982 4.54004C207.161 3.54843 206.256 2.76554 205.268 2.38965L205.264 2.3877C203.3 1.65083 201.828 1.24979 200.332 1.33887C198.842 1.42765 197.443 1.99714 195.615 2.91113C193.27 4.04914 191.964 6.07157 191.689 8.74902C191.422 11.3573 192.128 14.5751 193.673 18.2852L193.676 18.2939L193.68 18.3027C197.974 28.0916 200.266 42.87 199.545 55.6221V55.623C199.123 63.2296 198.128 70.4295 196.823 76.042C196.171 78.8501 195.446 81.2382 194.687 83.0723C193.91 84.9486 193.156 86.0977 192.521 86.5967L192.509 86.6064L192.497 86.6172C182.783 94.7592 180.573 97.0594 177.923 102.363L177.918 102.372L177.914 102.381C176.009 106.384 175.056 111.827 175.041 117.414C175.026 123.01 175.95 128.852 177.89 133.673C178.314 134.734 178.691 135.76 179.007 136.683C178.291 135.634 177.476 134.383 176.634 133.018C174.082 128.883 170.059 122.658 167.605 119.343L167.6 119.335L163.481 113.879L167.938 104.958C172.982 95.1036 176.419 80.8619 176.419 70.498V70.4912C176.357 62.2253 174.421 52.4023 171.741 44.2959C170.401 40.2404 168.863 36.5812 167.261 33.7422C166.46 32.3228 165.631 31.0886 164.789 30.1074C163.955 29.1351 163.063 28.3582 162.122 27.9248L162.119 27.9238C159.728 26.8299 157.022 26.873 154.737 27.7305C152.457 28.5864 150.493 30.2969 149.71 32.6475V32.6484C148.726 35.4768 149.262 38.1132 151.815 43.5898C153.484 47.4137 155.519 53.8878 156.354 58.0615C157.6 64.6051 157.547 73.2646 156.524 81.2734C155.496 89.3249 153.514 96.5052 151.042 100.188L151.04 100.19C150.759 100.612 150.598 100.743 150.492 100.793C150.422 100.826 150.247 100.884 149.771 100.753C149.278 100.617 148.586 100.313 147.569 99.7627C146.563 99.2183 145.292 98.4642 143.655 97.4629L143.652 97.4609C131.469 90.0712 121.225 87.2408 104.824 86.5059L104.815 86.5049C97.9602 86.2599 90.6208 86.6581 84.2402 87.5156C77.9087 88.3666 72.3931 89.6861 69.249 91.3506C68.8951 91.5262 68.7217 91.4873 68.6328 91.4482C68.5066 91.3928 68.2759 91.2128 68.0264 90.6885C67.5199 89.6238 67.1826 87.6561 67.1826 84.7109C67.1826 82.0896 66.5115 78.3904 65.4678 74.3359C64.4185 70.2601 62.9736 65.7505 61.3857 61.4795C59.7987 57.2108 58.0603 53.1581 56.4199 50C55.6006 48.4225 54.7959 47.0486 54.0361 45.9766C53.3001 44.938 52.5253 44.0632 51.7383 43.6279L51.7314 43.625L51.7246 43.6211C49.5979 42.4861 46.7016 42.4984 44.2109 43.1738C41.7453 43.8425 39.3075 45.2651 38.334 47.3555C37.6807 48.7358 37.5245 50.0861 37.9258 52.0107C38.3121 53.8636 39.2296 56.317 40.7422 59.9502C45.8075 72.1411 47.9667 80.4335 49.29 91.6309L50.208 100.831L45.1182 105.473V105.474L40.7734 109.349L39.1152 102.808L39.1143 102.804C36.1734 91.3984 31.3952 80.4881 24.4209 69.7119C20.9151 64.2075 18.2705 60.7279 15.7324 58.958C14.4282 58.0486 13.1222 57.567 11.7295 57.5039C10.3568 57.4418 8.98444 57.7912 7.54492 58.3984V58.3975C3.67659 59.9841 1.29763 62.3482 1.02539 65.6172C0.763682 68.7603 2.5042 72.3666 5.81934 76.3604L5.82031 76.3613C14.1708 86.3901 20.1879 100.908 23.3242 118.654L23.3252 118.659C26.48 136.025 29.0143 147.087 32.5654 155.61C36.1358 164.18 40.7173 170.146 47.8711 177.367C51.9472 181.508 54.9069 184.258 58.0703 186.555C61.237 188.854 64.5766 190.676 69.3896 192.993L70.9795 193.753C78.8282 197.47 85.1973 199.921 91.8271 201.551C98.897 203.289 106.223 204.083 115.902 204.51L118.26 204.598ZM218.345 111.523C217.07 113.054 215.765 113.02 215.044 112.554C214.347 112.103 213.757 110.969 214.327 109.247L214.457 108.895L214.462 108.883L214.466 108.87C214.572 108.587 214.809 108.274 215.119 108.03C215.442 107.776 215.715 107.697 215.836 107.697C216.073 107.697 216.502 107.817 217.028 108.114C217.531 108.398 218.013 108.783 218.354 109.172C218.937 109.874 219.023 110.177 219.023 110.342C219.023 110.507 218.936 110.814 218.345 111.523ZM86.582 135.069C84.1562 136.813 80.8023 137.241 77.1387 135.661L77.1299 135.657L77.1211 135.654C72.2886 133.676 70.4152 129.078 71.1455 124.482C71.8712 119.916 75.1699 115.47 80.6152 113.902C80.6329 113.907 80.6528 113.911 80.6738 113.917C80.8844 113.974 81.1982 114.074 81.5986 114.215C82.3937 114.495 83.466 114.912 84.6045 115.392L85.0264 115.577C87.0888 116.517 88.4303 117.627 89.292 119.093C90.2242 120.679 90.6709 122.811 90.6709 125.89C90.6709 130.124 89.0204 133.317 86.582 135.069ZM139.221 155.894C139.221 164.869 128.161 168.788 122.295 161.81C114.936 152.99 123.609 140.688 134.396 144.8C134.876 144.988 135.436 145.42 136.019 146.127C136.594 146.825 137.145 147.736 137.626 148.792C138.59 150.909 139.221 153.501 139.221 155.894ZM83.1748 182.225C82.7622 182.224 81.9718 181.989 81.0146 181.467C80.0913 180.963 79.1498 180.266 78.4463 179.508L78.4316 179.491L78.416 179.476C74.6392 175.75 75.234 171.196 77.6729 168.446C78.9004 167.062 80.5775 166.16 82.3916 166.034C84.1867 165.91 86.2184 166.538 88.1934 168.403L88.1992 168.409C89.7137 169.817 90.6709 171.988 90.6709 173.75C90.6709 175.478 89.6511 177.619 88.0879 179.37C86.5093 181.138 84.6353 182.225 83.1748 182.225Z" fill="white" stroke="#FF2C73" stroke-width="2"/>
</svg>
